<svg xmlns="http://www.w3.org/2000/svg" width="31.591" height="366.295" viewBox="0 0 31.591 366.295">
  <g id="activity_icon" transform="translate(-318.5 -1569.205)">
    <line id="Line_37" data-name="Line 37" y2="77" transform="translate(333.5 1599.5)" fill="none" stroke="#707070" stroke-width="2" stroke-dasharray="5"/>
    <line id="Line_38" data-name="Line 38" y2="77" transform="translate(333.5 1705.295)" fill="none" stroke="#707070" stroke-width="2" stroke-dasharray="5"/>
    <line id="Line_39" data-name="Line 39" y2="77" transform="translate(333.5 1811.091)" fill="none" stroke="#707070" stroke-width="2" stroke-dasharray="5"/>
    <line id="Line_40" data-name="Line 40" y2="17.114" transform="translate(333.5 1918.386)" fill="none" stroke="#707070" stroke-width="2" stroke-dasharray="5"/>
    <g id="Icon_feather-arrow-right-circle" data-name="Icon feather-arrow-right-circle" transform="translate(317 1567.705)">
      <path id="Path_514" data-name="Path 514" d="M31.591,17.3A14.3,14.3,0,1,1,17.3,3,14.3,14.3,0,0,1,31.591,17.3Z" transform="translate(0 0)" fill="none" stroke="#848da7" stroke-linecap="round" stroke-linejoin="round" stroke-width="3"/>
      <path id="Path_515" data-name="Path 515" d="M18,23.436l5.718-5.718L18,12" transform="translate(-0.705 -0.423)" fill="none" stroke="#848da7" stroke-linecap="round" stroke-linejoin="round" stroke-width="3"/>
      <path id="Path_516" data-name="Path 516" d="M12,18H23.436" transform="translate(-0.423 -0.705)" fill="none" stroke="#848da7" stroke-linecap="round" stroke-linejoin="round" stroke-width="3"/>
    </g>
    <g id="Icon_feather-arrow-right-circle-2" data-name="Icon feather-arrow-right-circle" transform="translate(317 1673.5)">
      <path id="Path_514-2" data-name="Path 514" d="M31.591,17.3A14.3,14.3,0,1,1,17.3,3,14.3,14.3,0,0,1,31.591,17.3Z" transform="translate(0 0)" fill="none" stroke="#848da7" stroke-linecap="round" stroke-linejoin="round" stroke-width="3"/>
      <path id="Path_515-2" data-name="Path 515" d="M18,23.436l5.718-5.718L18,12" transform="translate(-0.705 -0.423)" fill="none" stroke="#848da7" stroke-linecap="round" stroke-linejoin="round" stroke-width="3"/>
      <path id="Path_516-2" data-name="Path 516" d="M12,18H23.436" transform="translate(-0.423 -0.705)" fill="none" stroke="#848da7" stroke-linecap="round" stroke-linejoin="round" stroke-width="3"/>
    </g>
    <g id="Icon_feather-arrow-right-circle-3" data-name="Icon feather-arrow-right-circle" transform="translate(317 1779.295)">
      <path id="Path_514-3" data-name="Path 514" d="M31.591,17.3A14.3,14.3,0,1,1,17.3,3,14.3,14.3,0,0,1,31.591,17.3Z" transform="translate(0 0)" fill="none" stroke="#848da7" stroke-linecap="round" stroke-linejoin="round" stroke-width="3"/>
      <path id="Path_515-3" data-name="Path 515" d="M18,23.436l5.718-5.718L18,12" transform="translate(-0.705 -0.423)" fill="none" stroke="#848da7" stroke-linecap="round" stroke-linejoin="round" stroke-width="3"/>
      <path id="Path_516-3" data-name="Path 516" d="M12,18H23.436" transform="translate(-0.423 -0.705)" fill="none" stroke="#848da7" stroke-linecap="round" stroke-linejoin="round" stroke-width="3"/>
    </g>
    <g id="Icon_feather-arrow-right-circle-4" data-name="Icon feather-arrow-right-circle" transform="translate(317 1885.591)">
      <path id="Path_514-4" data-name="Path 514" d="M31.591,17.3A14.3,14.3,0,1,1,17.3,3,14.3,14.3,0,0,1,31.591,17.3Z" transform="translate(0 0)" fill="none" stroke="#848da7" stroke-linecap="round" stroke-linejoin="round" stroke-width="3"/>
      <path id="Path_515-4" data-name="Path 515" d="M18,23.436l5.718-5.718L18,12" transform="translate(-0.705 -0.423)" fill="none" stroke="#848da7" stroke-linecap="round" stroke-linejoin="round" stroke-width="3"/>
      <path id="Path_516-4" data-name="Path 516" d="M12,18H23.436" transform="translate(-0.423 -0.705)" fill="none" stroke="#848da7" stroke-linecap="round" stroke-linejoin="round" stroke-width="3"/>
    </g>
  </g>
</svg>
