<svg xmlns="http://www.w3.org/2000/svg" width="1882" height="640" viewBox="0 0 1882 640">
  <g id="All_Traffic_1" data-name="All Traffic_1" transform="translate(-20 -200)">
    <path id="Chart_Grid" data-name="Chart Grid" d="M0,264V0H1.713V19H361.534V0h1.713V19H723.069V0h1.713V19H1084.6V0h1.713V19h359.822V0h1.713V19h351.254v1H1447.852V80h351.254V0h1.713V202h.433v1h-.433v61Zm1799.107-1V203H1447.852v60Zm-352.968,0V203H1086.317v60ZM1084.6,263V203H724.783v60Zm-361.534,0V203H363.247v60Zm-361.536,0V203H2.147v-1H361.534V142H1.713V263Zm1437.573-61V142H1447.852v60Zm-352.968,0V142H1086.317v60ZM1084.6,202V142H724.783v60Zm-361.534,0V142H363.247v60Zm1076.037-61V81H1447.852v60Zm-352.968,0V81H1086.317v60ZM1084.6,141V81H724.783v60Zm-361.534,0V81H363.247v60Zm-361.536,0V81H1.713v60Zm1084.6-61V20H1086.317V80ZM1084.6,80V20H724.783V80ZM723.069,80V20H363.247V80ZM361.534,80V20H1.713V80Z" transform="translate(60 555.383)" fill="#eaf0f4"/>
    <path id="Bar.Graph" d="M1759.845,556V256.1a10,10,0,0,1,10-10H1774a10,10,0,0,1,10,10V556Zm-58.661,0V301.672a10,10,0,0,1,10-10h4.154a10,10,0,0,1,10,10V556Zm-58.662,0V113.3a10,10,0,0,1,10-10h4.155a10,10,0,0,1,10,10V556Zm-58.661,0V256.1a10,10,0,0,1,10-10h4.154a10,10,0,0,1,10,10V556Zm-58.662,0V177.1a10,10,0,0,1,10-10h4.155a10,10,0,0,1,10,10V556Zm-58.661,0V164.95a10,10,0,0,1,10-10h4.154a10,10,0,0,1,10,10V556Zm-58.662,0V92.032a10,10,0,0,1,10-10h4.154a10,10,0,0,1,10,10V556Zm-58.661,0V201.409a10,10,0,0,1,10-10h4.155a10,10,0,0,1,10,10V556Zm-58.661,0V240.907a10,10,0,0,1,10-10h4.154a10,10,0,0,1,10,10V556Zm-58.662,0V177.1a10,10,0,0,1,10-10h4.155a10,10,0,0,1,10,10V556Zm-58.661,0V408.011a10,10,0,0,1,10-10h4.154a10,10,0,0,1,10,10V556Zm-58.662,0V271.29a10,10,0,0,1,10-10h4.155a10,10,0,0,1,10,10V556Zm-58.661,0V228.754a10,10,0,0,1,10-10h4.154a10,10,0,0,1,10,10V556Zm-58.662,0V174.065a10,10,0,0,1,10-10h4.155a10,10,0,0,1,10,10V556Zm-58.661,0V295.6a10,10,0,0,1,10-10h4.154a10,10,0,0,1,10,10V556Zm-58.662,0V271.29a10,10,0,0,1,10-10h4.154a10,10,0,0,1,10,10V556Zm-58.661,0V10a10,10,0,0,1,10-10h4.155a10,10,0,0,1,10,10V556ZM762.6,556V447.509a10,10,0,0,1,10-10h4.154a10,10,0,0,1,10,10V556Zm-58.662,0V174.065a10,10,0,0,1,10-10h4.155a10,10,0,0,1,10,10V556Zm-58.661,0V319.9a10,10,0,0,1,10-10h4.154a10,10,0,0,1,10,10V556Zm-58.662,0V134.568a10,10,0,0,1,10-10h4.155a10,10,0,0,1,10,10V556Zm-58.661,0V256.1a10,10,0,0,1,10-10h4.154a10,10,0,0,1,10,10V556Zm-58.662,0V28.229a10,10,0,0,1,10-10h4.155a10,10,0,0,1,10,10V556Zm-58.661,0V329.017a10,10,0,0,1,10-10h4.154a10,10,0,0,1,10,10V556Zm-58.662,0V271.29a10,10,0,0,1,10-10h4.154a10,10,0,0,1,10,10V556Zm-58.661,0V146.721a10,10,0,0,1,10-10h4.155a10,10,0,0,1,10,10V556Zm-58.661,0V371.552a10,10,0,0,1,10-10H248.8a10,10,0,0,1,10,10V556Zm-58.662,0V286.481a10,10,0,0,1,10-10h4.155a10,10,0,0,1,10,10V556Zm-58.661,0V204.448a10,10,0,0,1,10-10h4.154a10,10,0,0,1,10,10V556Zm-58.662,0V295.6a10,10,0,0,1,10-10h4.155a10,10,0,0,1,10,10V556ZM0,556V408.011a10,10,0,0,1,10-10h4.154a10,10,0,0,1,10,10V556Z" transform="translate(68 263)" fill="#37a28c"/>
    <path id="Line.Graph" d="M327.138,419.406s16.069-79.211,49.5-79.211,38.31,22.013,69.817,22.013,25.333-47.451,57.712-47.963,62.145,82.914,119.9,84.708,96.168-65.062,121.315-65.062,31.407,24.979,57.249,24.979,25.525-49.264,54.243-49.264,17.317,62.988,63.422,62.988,90.779-28.312,119.586-28.312,75.509,39.321,117.778,38.8,87.054-67.587,125.693-67.587,129.62,67.441,174.183,67.587,37.073-39.341,66.356-39.341,26.306,36.978,52.886,37,37.854-27.71,60.9-28.039,76.8,66.4,115.7,66.7,29.915-32,59.983-41.5,35.142,25.645,64.759,18.076,24.5-35.342,53.71-48.353,73.328,20,118.582,20,60.735-39.975,60.735-39.975" transform="translate(-259.138 376.145)" fill="none" stroke="#c2c2c2" stroke-width="2" stroke-dasharray="5"/>
    <text id="Nov_10_2017" data-name="Nov 10, 2017" transform="translate(69 836)" fill="#37a28c" font-size="11" font-family="Poppins-Regular, Poppins"><tspan x="0" y="0">Nov 10, 2017</tspan></text>
    <text id="Dec_10_2017" data-name="Dec 10, 2017" transform="translate(1852 836)" fill="#37a28c" font-size="11" font-family="Poppins-Regular, Poppins"><tspan x="-62.513" y="0">Dec 10, 2017</tspan></text>
    <text id="_5k" data-name="$5k" transform="translate(20 818)" fill="#37a28c" font-size="11" font-family="Poppins-Regular, Poppins"><tspan x="0" y="0">$5k</tspan></text>
    <text id="_10k" data-name="$10k" transform="translate(20 757)" fill="#37a28c" font-size="11" font-family="Poppins-Regular, Poppins"><tspan x="0" y="0">$10k</tspan></text>
    <text id="_15k" data-name="$15k" transform="translate(20 697)" fill="#37a28c" font-size="11" font-family="Poppins-Regular, Poppins"><tspan x="0" y="0">$15k</tspan></text>
    <text id="_20k" data-name="$20k" transform="translate(20 635)" fill="#37a28c" font-size="11" font-family="Poppins-Regular, Poppins"><tspan x="0" y="0">$20k</tspan></text>
    <text id="_25k" data-name="$25k" transform="translate(20 574)" fill="#37a28c" font-size="11" font-family="Poppins-Regular, Poppins"><tspan x="0" y="0">$25k</tspan></text>
    <text id="_5k-2" data-name="$5k" transform="translate(1876 818)" fill="#37a28c" font-size="11" font-family="Poppins-Regular, Poppins"><tspan x="0" y="0">$5k</tspan></text>
    <text id="_10k-2" data-name="$10k" transform="translate(1876 757)" fill="#37a28c" font-size="11" font-family="Poppins-Regular, Poppins"><tspan x="0" y="0">$10k</tspan></text>
    <text id="_15k-2" data-name="$15k" transform="translate(1876 697)" fill="#37a28c" font-size="11" font-family="Poppins-Regular, Poppins"><tspan x="0" y="0">$15k</tspan></text>
    <text id="_20k-2" data-name="$20k" transform="translate(1876 635)" fill="#37a28c" font-size="11" font-family="Poppins-Regular, Poppins"><tspan x="0" y="0">$20k</tspan></text>
    <text id="_25k-2" data-name="$25k" transform="translate(1876 574)" fill="#37a28c" font-size="11" font-family="Poppins-Regular, Poppins"><tspan x="0" y="0">$25k</tspan></text>
    <g id="Rectangle_790" data-name="Rectangle 790" transform="translate(1358 200)" fill="#27293d" stroke="#707070" stroke-width="1">
      <rect width="280" height="55" rx="10" stroke="none"/>
      <rect x="0.5" y="0.5" width="279" height="54" rx="9.5" fill="none"/>
    </g>
    <text id="Last_6_Hours" data-name="Last 6 Hours" transform="translate(1390.229 233.5)" fill="#646d82" font-size="17" font-family="Poppins-Medium, Poppins" font-weight="500" letter-spacing="0.1em"><tspan x="0" y="0">Last 6 Hours</tspan></text>
    <path id="Icon_ionic-md-arrow-dropdown" data-name="Icon ionic-md-arrow-dropdown" d="M9,13.5,21.272,25.168,33.543,13.5Z" transform="translate(1572.229 214)" fill="#37a28c"/>
  </g>
</svg>
