<svg xmlns="http://www.w3.org/2000/svg" xmlns:xlink="http://www.w3.org/1999/xlink" width="1362" height="301.992" viewBox="0 0 1362 301.992">
  <defs>
    <filter id="Dot" x="0" y="122.992" width="1362" height="179" filterUnits="userSpaceOnUse">
      <feOffset dx="-0.174" dy="1.992" input="SourceAlpha"/>
      <feGaussianBlur stdDeviation="3" result="blur"/>
      <feFlood flood-opacity="0.059"/>
      <feComposite operator="in" in2="blur"/>
      <feComposite in="SourceGraphic"/>
    </filter>
  </defs>
  <g id="Analytics" transform="translate(-471.828 -1604)">
    <g id="Chart" transform="translate(477.313 1603.861)">
      <path id="Chart-2" data-name="Chart" d="M1326.134,282V124.413H1351V282Zm-41.442,0V82.942h24.865V282Zm-41.442,0V49.766h24.865V282Zm-41.44,0V58.059h24.864V282Zm-41.442,0V74.647h24.865V282Zm-41.442,0V124.413h24.866V282Zm-41.442,0V91.237h24.865V282Zm-41.44,0V107.825h24.864V282ZM994.6,282V141h24.864V282Zm-41.442,0V82.942h24.866V282Zm-41.442,0V107.825h24.865V282Zm-41.442,0V74.647h24.865V282Zm-41.44,0V165.884H853.7V282Zm-41.442,0V124.413h24.865V282Zm-41.442,0V66.354h24.865V282Zm-41.442,0V99.53h24.865V282Zm-41.441,0V116.118h24.864V282Zm-41.442,0V49.766H646.49V282Zm-41.442,0V107.825h24.866V282Zm-41.442,0V165.884h24.866V282ZM497.3,282V124.413h24.865V282Zm-41.441,0V66.354h24.864V282Zm-41.442,0V99.53h24.865V282Zm-41.442,0V116.118h24.865V282Zm-41.442,0V49.766H356.4V282Zm-41.44,0V107.825h24.864V282Zm-41.442,0V157.589h24.864V282Zm-41.442,0V132.706h24.866V282Zm-41.442,0V66.354h24.866V282Zm-41.442,0V0H149.19V282Zm-41.441,0V16.59h24.864V282Zm-41.442,0V0H66.308V282ZM0,282V49.766H24.866V282Z" transform="translate(-0.313 0.139)" fill="#3d465e"/>
      <path id="Chart-3" data-name="Chart" d="M1326.134,149V74.5H1351V149Zm-41.442,0V57.945h24.865V149Zm-41.442,0V82.778h24.865V149Zm-41.44,0V57.945h24.864V149Zm-41.442,0V49.668h24.865V149Zm-41.442,0V74.5h24.866V149Zm-41.442,0V74.5h24.865V149Zm-41.44,0V57.945h24.864V149ZM994.6,149V91.055h24.864V149Zm-41.442,0V33.112h24.866V149Zm-41.442,0V57.945h24.865V149Zm-41.442,0V82.778h24.865V149Zm-41.44,0V115.889H853.7V149Zm-41.442,0V74.5h24.865V149Zm-41.442,0V57.945h24.865V149Zm-41.442,0V49.668h24.865V149Zm-41.441,0V66.223h24.864V149Zm-41.442,0V49.668H646.49V149Zm-41.442,0V57.945h24.866V149Zm-41.442,0V115.889h24.866V149ZM497.3,149V74.5h24.865V149Zm-41.441,0V82.778h24.864V149Zm-41.442,0V91.055h24.865V149Zm-41.442,0V99.334h24.865V149Zm-41.442,0V66.223H356.4V149Zm-41.44,0V82.778h24.864V149Zm-41.442,0V107.612h24.864V149Zm-41.442,0V82.778h24.866V149Zm-41.442,0V49.668h24.866V149Zm-41.442,0V16.555H149.19V149Zm-41.441,0V41.389h24.864V149Zm-41.442,0V0H66.308V149ZM0,149V74.5H24.866V149Z" transform="translate(-0.313 132.139)" fill="#47536c"/>
    </g>
    <path id="Chart-4" data-name="Chart" d="M557,413.308l41.443-29.839H600.1l41.442,72.939,41.443-16.577,41.442-33.154,41.442-24.865L807.312,464.7l41.442-16.577L890.2,431.543l41.442,24.865,41.442-74.6,41.442,89.516,1.658,1.658,39.784-16.577,41.443,16.577,41.442,16.577h84.543l41.442-18.235,38.127-31.5,41.442,49.731h41.443l43.1-82.885,41.442,8.288,39.785-33.154,43.1,24.865L1593.062,347l43.1,44.758,39.785,48.073,41.442,16.577,41.442-81.227,41.443,56.362,43.1,33.154,41.443-24.865" transform="translate(-67.97 1392.259)" fill="none" stroke="#37a28c" stroke-width="2"/>
    <g transform="matrix(1, 0, 0, 1, 471.83, 1604)" filter="url(#Dot)">
      <g id="Dot-2" data-name="Dot" transform="translate(9.17 130)" fill="#37a28c">
        <path d="M 837.7218627929688 160 C 833.2474975585938 160 829.6073608398438 156.3535003662109 829.6073608398438 151.871337890625 C 829.6073608398438 147.38916015625 833.2474975585938 143.7426605224609 837.7218627929688 143.7426605224609 C 842.1961669921875 143.7426605224609 845.8363037109375 147.38916015625 845.8363037109375 151.871337890625 C 845.8363037109375 156.3535003662109 842.1961669921875 160 837.7218627929688 160 Z M 796.2913208007813 160 C 791.8170166015625 160 788.1768188476563 156.3535003662109 788.1768188476563 151.871337890625 C 788.1768188476563 147.38916015625 791.8170166015625 143.7426605224609 796.2913208007813 143.7426605224609 C 800.7656860351563 143.7426605224609 804.4058227539063 147.38916015625 804.4058227539063 151.871337890625 C 804.4058227539063 156.3535003662109 800.7656860351563 160 796.2913208007813 160 Z M 672.0006713867188 160 C 667.5263061523438 160 663.8861694335938 156.3535003662109 663.8861694335938 151.871337890625 C 663.8861694335938 147.38916015625 667.5263061523438 143.7426605224609 672.0006713867188 143.7426605224609 C 676.4749755859375 143.7426605224609 680.1151733398438 147.38916015625 680.1151733398438 151.871337890625 C 680.1151733398438 156.3535003662109 676.4749755859375 160 672.0006713867188 160 Z M 630.5700073242188 160 C 626.0956420898438 160 622.4556884765625 156.3535003662109 622.4556884765625 151.871337890625 C 622.4556884765625 147.38916015625 626.0956420898438 143.7426605224609 630.5700073242188 143.7426605224609 C 635.0443115234375 143.7426605224609 638.6845092773438 147.38916015625 638.6845092773438 151.871337890625 C 638.6845092773438 156.3535003662109 635.0443115234375 160 630.5700073242188 160 Z M 589.1395263671875 160 C 584.6651611328125 160 581.0250244140625 156.3535003662109 581.0250244140625 151.871337890625 C 581.0250244140625 147.38916015625 584.6651611328125 143.7426605224609 589.1395263671875 143.7426605224609 C 593.6138305664063 143.7426605224609 597.2538452148438 147.38916015625 597.2538452148438 151.871337890625 C 597.2538452148438 156.3535003662109 593.6138305664063 160 589.1395263671875 160 Z M 713.4313354492188 141.7426605224609 C 708.9569702148438 141.7426605224609 705.3170166015625 138.0961608886719 705.3170166015625 133.6139984130859 C 705.3170166015625 129.1316680908203 708.9569702148438 125.4851684570313 713.4313354492188 125.4851684570313 C 717.9058227539063 125.4851684570313 721.5460205078125 129.1316680908203 721.5460205078125 133.6139984130859 C 721.5460205078125 138.0961608886719 717.9058227539063 141.7426605224609 713.4313354492188 141.7426605224609 Z M 547.7101440429688 141.7426605224609 C 543.2349853515625 141.7426605224609 539.5943603515625 138.0961608886719 539.5943603515625 133.6139984130859 C 539.5943603515625 129.1316680908203 543.2349853515625 125.4851684570313 547.7101440429688 125.4851684570313 C 552.1845092773438 125.4851684570313 555.8246459960938 129.1316680908203 555.8246459960938 133.6139984130859 C 555.8246459960938 138.0961608886719 552.1845092773438 141.7426605224609 547.7101440429688 141.7426605224609 Z M 464.8489990234375 140.0829925537109 C 460.3746643066406 140.0829925537109 456.7344970703125 136.4364929199219 456.7344970703125 131.9543304443359 C 456.7344970703125 127.4713363647461 460.3746643066406 123.8241653442383 464.8489990234375 123.8241653442383 C 469.3233337402344 123.8241653442383 472.9635009765625 127.4713363647461 472.9635009765625 131.9543304443359 C 472.9635009765625 136.4364929199219 469.3233337402344 140.0829925537109 464.8489990234375 140.0829925537109 Z M 257.6971740722656 136.7621612548828 C 253.2226715087891 136.7621612548828 249.5825042724609 133.1156616210938 249.5825042724609 128.6336669921875 C 249.5825042724609 124.151496887207 253.2226715087891 120.504997253418 257.6971740722656 120.504997253418 C 262.1715087890625 120.504997253418 265.8114929199219 124.151496887207 265.8114929199219 128.6336669921875 C 265.8114929199219 133.1156616210938 262.1715087890625 136.7621612548828 257.6971740722656 136.7621612548828 Z M 1293.45654296875 133.4429931640625 C 1288.981201171875 133.4429931640625 1285.34033203125 129.7964935302734 1285.34033203125 125.3143310546875 C 1285.34033203125 120.8321685791016 1288.981201171875 117.1856689453125 1293.45654296875 117.1856689453125 C 1297.930786132813 117.1856689453125 1301.571044921875 120.8321685791016 1301.571044921875 125.3143310546875 C 1301.571044921875 129.7964935302734 1297.930786132813 133.4429931640625 1293.45654296875 133.4429931640625 Z M 381.9874877929688 126.8044967651367 C 377.5131530761719 126.8044967651367 373.8729858398438 123.1579971313477 373.8729858398438 118.6758346557617 C 373.8729858398438 114.1936645507813 377.5131530761719 110.5471649169922 381.9874877929688 110.5471649169922 C 386.4626770019531 110.5471649169922 390.1034851074219 114.1936645507813 390.1034851074219 118.6758346557617 C 390.1034851074219 123.1579971313477 386.4626770019531 126.8044967651367 381.9874877929688 126.8044967651367 Z M 1169.16455078125 125.1448364257813 C 1164.68994140625 125.1448364257813 1161.0498046875 121.4983367919922 1161.0498046875 117.0161666870117 C 1161.0498046875 112.5331649780273 1164.68994140625 108.8860015869141 1169.16455078125 108.8860015869141 C 1173.638793945313 108.8860015869141 1177.279052734375 112.5331649780273 1177.279052734375 117.0161666870117 C 1177.279052734375 121.4983367919922 1173.638793945313 125.1448364257813 1169.16455078125 125.1448364257813 Z M 506.2795104980469 125.1448364257813 C 501.80517578125 125.1448364257813 498.1651611328125 121.4983367919922 498.1651611328125 117.0161666870117 C 498.1651611328125 112.5331649780273 501.80517578125 108.8860015869141 506.2795104980469 108.8860015869141 C 510.7538452148438 108.8860015869141 514.3939819335938 112.5331649780273 514.3939819335938 117.0161666870117 C 514.3939819335938 121.4983367919922 510.7538452148438 125.1448364257813 506.2795104980469 125.1448364257813 Z M 91.975830078125 125.1448364257813 C 87.50150299072266 125.1448364257813 83.86133575439453 121.4983367919922 83.86133575439453 117.0161666870117 C 83.86133575439453 112.5331649780273 87.50150299072266 108.8860015869141 91.975830078125 108.8860015869141 C 96.45033264160156 108.8860015869141 100.0904998779297 112.5331649780273 100.0904998779297 117.0161666870117 C 100.0904998779297 121.4983367919922 96.45033264160156 125.1448364257813 91.975830078125 125.1448364257813 Z M 299.1278381347656 116.8453369140625 C 294.6535034179688 116.8453369140625 291.0133361816406 113.1988296508789 291.0133361816406 108.7164993286133 C 291.0133361816406 104.2344970703125 294.6535034179688 100.5879974365234 299.1278381347656 100.5879974365234 C 303.6021728515625 100.5879974365234 307.2423400878906 104.2344970703125 307.2423400878906 108.7164993286133 C 307.2423400878906 113.1988296508789 303.6021728515625 116.8453369140625 299.1278381347656 116.8453369140625 Z M 1334.885620117188 110.2068328857422 C 1330.411376953125 110.2068328857422 1326.771118164063 106.5603332519531 1326.771118164063 102.0781631469727 C 1326.771118164063 97.59516906738281 1330.411376953125 93.94783020019531 1334.885620117188 93.94783020019531 C 1339.359985351563 93.94783020019531 1343 97.59516906738281 1343 102.0781631469727 C 1343 106.5603332519531 1339.359985351563 110.2068328857422 1334.885620117188 110.2068328857422 Z M 133.4066619873047 110.2068328857422 C 128.9321594238281 110.2068328857422 125.2919998168945 106.5603332519531 125.2919998168945 102.0781631469727 C 125.2919998168945 97.59516906738281 128.9321594238281 93.94783020019531 133.4066619873047 93.94783020019531 C 137.8809967041016 93.94783020019531 141.52099609375 97.59516906738281 141.52099609375 102.0781631469727 C 141.52099609375 106.5603332519531 137.8809967041016 110.2068328857422 133.4066619873047 110.2068328857422 Z M 1127.733642578125 108.5471649169922 C 1123.25927734375 108.5471649169922 1119.619140625 104.9000015258789 1119.619140625 100.4169998168945 C 1119.619140625 95.93482971191406 1123.25927734375 92.288330078125 1127.733642578125 92.288330078125 C 1132.208984375 92.288330078125 1135.849853515625 95.93482971191406 1135.849853515625 100.4169998168945 C 1135.849853515625 104.9000015258789 1132.208984375 108.5471649169922 1127.733642578125 108.5471649169922 Z M 754.8606567382813 108.5471649169922 C 750.3863525390625 108.5471649169922 746.7461547851563 104.9000015258789 746.7461547851563 100.4169998168945 C 746.7461547851563 95.93482971191406 750.3863525390625 92.288330078125 754.8606567382813 92.288330078125 C 759.3358154296875 92.288330078125 762.9766845703125 95.93482971191406 762.9766845703125 100.4169998168945 C 762.9766845703125 104.9000015258789 759.3358154296875 108.5471649169922 754.8606567382813 108.5471649169922 Z M 1252.025634765625 101.9071655273438 C 1247.551391601563 101.9071655273438 1243.911376953125 98.26066589355469 1243.911376953125 93.77850341796875 C 1243.911376953125 89.29633331298828 1247.551391601563 85.64983367919922 1252.025634765625 85.64983367919922 C 1256.5 85.64983367919922 1260.14013671875 89.29633331298828 1260.14013671875 93.77850341796875 C 1260.14013671875 98.26066589355469 1256.5 101.9071655273438 1252.025634765625 101.9071655273438 Z M 340.5585021972656 101.9071655273438 C 336.0841674804688 101.9071655273438 332.4440002441406 98.26066589355469 332.4440002441406 93.77850341796875 C 332.4440002441406 89.29633331298828 336.0841674804688 85.64983367919922 340.5585021972656 85.64983367919922 C 345.0328369140625 85.64983367919922 348.6730041503906 89.29633331298828 348.6730041503906 93.77850341796875 C 348.6730041503906 98.26066589355469 345.0328369140625 101.9071655273438 340.5585021972656 101.9071655273438 Z M 9.114666938781738 83.64983367919922 C 4.640166759490967 83.64983367919922 1 80.00333404541016 1 75.52116394042969 C 1 71.03900146484375 4.640166759490967 67.39250183105469 9.114666938781738 67.39250183105469 C 13.58983325958252 67.39250183105469 17.23049926757813 71.03900146484375 17.23049926757813 75.52116394042969 C 17.23049926757813 80.00333404541016 13.58983325958252 83.64983367919922 9.114666938781738 83.64983367919922 Z M 920.5833129882813 81.99016571044922 C 916.108154296875 81.99016571044922 912.4673461914063 78.34366607666016 912.4673461914063 73.86150360107422 C 912.4673461914063 69.37933349609375 916.108154296875 65.73283386230469 920.5833129882813 65.73283386230469 C 925.0576782226563 65.73283386230469 928.6978149414063 69.37933349609375 928.6978149414063 73.86150360107422 C 928.6978149414063 78.34366607666016 925.0576782226563 81.99016571044922 920.5833129882813 81.99016571044922 Z M 879.1526489257813 77.00983428955078 C 874.6783447265625 77.00983428955078 871.0381469726563 73.36333465576172 871.0381469726563 68.88116455078125 C 871.0381469726563 64.39900207519531 874.6783447265625 60.75249862670898 879.1526489257813 60.75249862670898 C 883.6270141601563 60.75249862670898 887.2671508789063 64.39900207519531 887.2671508789063 68.88116455078125 C 887.2671508789063 73.36333465576172 883.6270141601563 77.00983428955078 879.1526489257813 77.00983428955078 Z M 174.8371734619141 77.00983428955078 C 170.3619995117188 77.00983428955078 166.7211608886719 73.36333465576172 166.7211608886719 68.88116455078125 C 166.7211608886719 64.39900207519531 170.3619995117188 60.75249862670898 174.8371734619141 60.75249862670898 C 179.3114929199219 60.75249862670898 182.95166015625 64.39900207519531 182.95166015625 68.88116455078125 C 182.95166015625 73.36333465576172 179.3114929199219 77.00983428955078 174.8371734619141 77.00983428955078 Z M 1003.442993164063 75.35016632080078 C 998.9686889648438 75.35016632080078 995.3286743164063 71.70366668701172 995.3286743164063 67.22149658203125 C 995.3286743164063 62.73933410644531 998.9686889648438 59.09283447265625 1003.442993164063 59.09283447265625 C 1007.91748046875 59.09283447265625 1011.557678222656 62.73933410644531 1011.557678222656 67.22149658203125 C 1011.557678222656 71.70366668701172 1007.91748046875 75.35016632080078 1003.442993164063 75.35016632080078 Z M 1086.3046875 60.4119987487793 C 1081.830322265625 60.4119987487793 1078.190185546875 56.76549911499023 1078.190185546875 52.28333282470703 C 1078.190185546875 47.80116653442383 1081.830322265625 44.15466690063477 1086.3046875 44.15466690063477 C 1090.779052734375 44.15466690063477 1094.419189453125 47.80116653442383 1094.419189453125 52.28333282470703 C 1094.419189453125 56.76549911499023 1090.779052734375 60.4119987487793 1086.3046875 60.4119987487793 Z M 50.545166015625 55.43316650390625 C 46.07083511352539 55.43316650390625 42.43066787719727 51.78666687011719 42.43066787719727 47.30450057983398 C 42.43066787719727 42.82233428955078 46.07083511352539 39.17583465576172 50.545166015625 39.17583465576172 C 55.01950073242188 39.17583465576172 58.65966796875 42.82233428955078 58.65966796875 47.30450057983398 C 58.65966796875 51.78666687011719 55.01950073242188 55.43316650390625 50.545166015625 55.43316650390625 Z M 962.0125122070313 53.77366638183594 C 957.5381469726563 53.77366638183594 953.8980102539063 50.12716674804688 953.8980102539063 45.64500045776367 C 953.8980102539063 41.16266632080078 957.5381469726563 37.51616668701172 962.0125122070313 37.51616668701172 C 966.48681640625 37.51616668701172 970.1270141601563 41.16266632080078 970.1270141601563 45.64500045776367 C 970.1270141601563 50.12716674804688 966.48681640625 53.77366638183594 962.0125122070313 53.77366638183594 Z M 216.2663269042969 52.11399841308594 C 211.7920074462891 52.11399841308594 208.1519927978516 48.46749877929688 208.1519927978516 43.98533248901367 C 208.1519927978516 39.50299835205078 211.7920074462891 35.85649871826172 216.2663269042969 35.85649871826172 C 220.7408294677734 35.85649871826172 224.3809967041016 39.50299835205078 224.3809967041016 43.98533248901367 C 224.3809967041016 48.46749877929688 220.7408294677734 52.11399841308594 216.2663269042969 52.11399841308594 Z M 1210.594970703125 45.4739990234375 C 1206.120727539063 45.4739990234375 1202.48046875 41.82749938964844 1202.48046875 37.34533309936523 C 1202.48046875 32.86316680908203 1206.120727539063 29.21666717529297 1210.594970703125 29.21666717529297 C 1215.0693359375 29.21666717529297 1218.709350585938 32.86316680908203 1218.709350585938 37.34533309936523 C 1218.709350585938 41.82749938964844 1215.0693359375 45.4739990234375 1210.594970703125 45.4739990234375 Z M 1044.873779296875 17.25733375549316 C 1040.399536132813 17.25733375549316 1036.75927734375 13.61083316802979 1036.75927734375 9.128666877746582 C 1036.75927734375 4.646500110626221 1040.399536132813 1 1044.873779296875 1 C 1049.34814453125 1 1052.98828125 4.646500110626221 1052.98828125 9.128666877746582 C 1052.98828125 13.61083316802979 1049.34814453125 17.25733375549316 1044.873779296875 17.25733375549316 Z" stroke="none"/>
        <path d="M 837.7219848632813 159 C 841.644775390625 159 844.8363037109375 155.8021697998047 844.8363037109375 151.8713073730469 C 844.8363037109375 147.9404296875 841.644775390625 144.7426147460938 837.7219848632813 144.7426147460938 C 833.7988891601563 144.7426147460938 830.6073608398438 147.9404296875 830.6073608398438 151.8713073730469 C 830.6073608398438 155.8021697998047 833.7988891601563 159 837.7219848632813 159 M 796.2913208007813 159 C 800.21435546875 159 803.4058837890625 155.8021697998047 803.4058837890625 151.8713073730469 C 803.4058837890625 147.9404296875 800.21435546875 144.7426147460938 796.2913208007813 144.7426147460938 C 792.3682861328125 144.7426147460938 789.1767578125 147.9404296875 789.1767578125 151.8713073730469 C 789.1767578125 155.8021697998047 792.3682861328125 159 796.2913208007813 159 M 672.0006713867188 159 C 675.9237060546875 159 679.115234375 155.8021697998047 679.115234375 151.8713073730469 C 679.115234375 147.9404296875 675.9237060546875 144.7426147460938 672.0006713867188 144.7426147460938 C 668.0778198242188 144.7426147460938 664.8862915039063 147.9404296875 664.8862915039063 151.8713073730469 C 664.8862915039063 155.8021697998047 668.0778198242188 159 672.0006713867188 159 M 630.5700073242188 159 C 634.4930419921875 159 637.6845703125 155.8021697998047 637.6845703125 151.8713073730469 C 637.6845703125 147.9404296875 634.4930419921875 144.7426147460938 630.5700073242188 144.7426147460938 C 626.6471557617188 144.7426147460938 623.4556274414063 147.9404296875 623.4556274414063 151.8713073730469 C 623.4556274414063 155.8021697998047 626.6471557617188 159 630.5700073242188 159 M 589.1395874023438 159 C 593.0623779296875 159 596.25390625 155.8021697998047 596.25390625 151.8713073730469 C 596.25390625 147.9404296875 593.0623779296875 144.7426147460938 589.1395874023438 144.7426147460938 C 585.2164916992188 144.7426147460938 582.0250244140625 147.9404296875 582.0250244140625 151.8713073730469 C 582.0250244140625 155.8021697998047 585.2164916992188 159 589.1395874023438 159 M 713.4312744140625 140.7426147460938 C 717.3543701171875 140.7426147460938 720.5458984375 137.5447845458984 720.5458984375 133.6139068603516 C 720.5458984375 129.6830444335938 717.3543701171875 126.4852142333984 713.4312744140625 126.4852142333984 C 709.5084838867188 126.4852142333984 706.3169555664063 129.6830444335938 706.3169555664063 133.6139068603516 C 706.3169555664063 137.5447845458984 709.5084838867188 140.7426147460938 713.4312744140625 140.7426147460938 M 547.710205078125 140.7426147460938 C 551.6332397460938 140.7426147460938 554.8247680664063 137.5447845458984 554.8247680664063 133.6139068603516 C 554.8247680664063 129.6830444335938 551.6332397460938 126.4852142333984 547.710205078125 126.4852142333984 C 543.7864990234375 126.4852142333984 540.5943603515625 129.6830444335938 540.5943603515625 133.6139068603516 C 540.5943603515625 137.5447845458984 543.7864990234375 140.7426147460938 547.710205078125 140.7426147460938 M 464.8489074707031 139.0830383300781 C 468.7719421386719 139.0830383300781 471.9634704589844 135.8852233886719 471.9634704589844 131.954345703125 C 471.9634704589844 128.0228271484375 468.7719421386719 124.8241271972656 464.8489074707031 124.8241271972656 C 460.9260864257813 124.8241271972656 457.7345581054688 128.0228271484375 457.7345581054688 131.954345703125 C 457.7345581054688 135.8852233886719 460.9260864257813 139.0830383300781 464.8489074707031 139.0830383300781 M 257.6971740722656 135.7621765136719 C 261.6199951171875 135.7621765136719 264.8115234375 132.5643463134766 264.8115234375 128.6336975097656 C 264.8115234375 124.7028274536133 261.6199951171875 121.504997253418 257.6971740722656 121.504997253418 C 253.7741241455078 121.504997253418 250.5826110839844 124.7028274536133 250.5826110839844 128.6336975097656 C 250.5826110839844 132.5643463134766 253.7741241455078 135.7621765136719 257.6971740722656 135.7621765136719 M 1293.45654296875 132.4430389404297 C 1297.37939453125 132.4430389404297 1300.570922851563 129.2452239990234 1300.570922851563 125.3143463134766 C 1300.570922851563 121.3834762573242 1297.37939453125 118.1856536865234 1293.45654296875 118.1856536865234 C 1289.532592773438 118.1856536865234 1286.340454101563 121.3834762573242 1286.340454101563 125.3143463134766 C 1286.340454101563 129.2452239990234 1289.532592773438 132.4430389404297 1293.45654296875 132.4430389404297 M 381.9876098632813 125.8045654296875 C 385.9113159179688 125.8045654296875 389.1034851074219 122.6067428588867 389.1034851074219 118.6758728027344 C 389.1034851074219 114.745002746582 385.9113159179688 111.5471725463867 381.9876098632813 111.5471725463867 C 378.0645751953125 111.5471725463867 374.873046875 114.745002746582 374.873046875 118.6758728027344 C 374.873046875 122.6067428588867 378.0645751953125 125.8045654296875 381.9876098632813 125.8045654296875 M 1169.164306640625 124.1449966430664 C 1173.08740234375 124.1449966430664 1176.278930664063 120.9471740722656 1176.278930664063 117.0163040161133 C 1176.278930664063 113.0847854614258 1173.08740234375 109.8860855102539 1169.164306640625 109.8860855102539 C 1165.241333007813 109.8860855102539 1162.0498046875 113.0847854614258 1162.0498046875 117.0163040161133 C 1162.0498046875 120.9471740722656 1165.241333007813 124.1449966430664 1169.164306640625 124.1449966430664 M 506.2795715332031 124.1449966430664 C 510.2026062011719 124.1449966430664 513.3941040039063 120.9471740722656 513.3941040039063 117.0163040161133 C 513.3941040039063 113.0847854614258 510.2026062011719 109.8860855102539 506.2795715332031 109.8860855102539 C 502.3565368652344 109.8860855102539 499.1650085449219 113.0847854614258 499.1650085449219 117.0163040161133 C 499.1650085449219 120.9471740722656 502.3565368652344 124.1449966430664 506.2795715332031 124.1449966430664 M 91.97586822509766 124.1449966430664 C 95.89891052246094 124.1449966430664 99.09043121337891 120.9471740722656 99.09043121337891 117.0163040161133 C 99.09043121337891 113.0847854614258 95.89891052246094 109.8860855102539 91.97586822509766 109.8860855102539 C 88.05304718017578 109.8860855102539 84.86151885986328 113.0847854614258 84.86151885986328 117.0163040161133 C 84.86151885986328 120.9471740722656 88.05304718017578 124.1449966430664 91.97586822509766 124.1449966430664 M 299.1278381347656 115.84521484375 C 303.0508728027344 115.84521484375 306.2424011230469 112.6473922729492 306.2424011230469 108.7165222167969 C 306.2424011230469 104.7858657836914 303.0508728027344 101.5880432128906 299.1278381347656 101.5880432128906 C 295.2047729492188 101.5880432128906 292.0132751464844 104.7858657836914 292.0132751464844 108.7165222167969 C 292.0132751464844 112.6473922729492 295.2047729492188 115.84521484375 299.1278381347656 115.84521484375 M 1334.885620117188 109.2067413330078 C 1338.808471679688 109.2067413330078 1342 106.0089111328125 1342 102.0780410766602 C 1342 98.14652252197266 1338.808471679688 94.94782257080078 1334.885620117188 94.94782257080078 C 1330.962646484375 94.94782257080078 1327.771118164063 98.14652252197266 1327.771118164063 102.0780410766602 C 1327.771118164063 106.0089111328125 1330.962646484375 109.2067413330078 1334.885620117188 109.2067413330078 M 133.40673828125 109.2067413330078 C 137.3295593261719 109.2067413330078 140.5210876464844 106.0089111328125 140.5210876464844 102.0780410766602 C 140.5210876464844 98.14652252197266 137.3295593261719 94.94782257080078 133.40673828125 94.94782257080078 C 129.4836883544922 94.94782257080078 126.2921752929688 98.14652252197266 126.2921752929688 102.0780410766602 C 126.2921752929688 106.0089111328125 129.4836883544922 109.2067413330078 133.40673828125 109.2067413330078 M 1127.733642578125 107.5471725463867 C 1131.657592773438 107.5471725463867 1134.849731445313 104.3484802246094 1134.849731445313 100.4169540405273 C 1134.849731445313 96.486083984375 1131.657592773438 93.28826141357422 1127.733642578125 93.28826141357422 C 1123.810668945313 93.28826141357422 1120.619140625 96.486083984375 1120.619140625 100.4169540405273 C 1120.619140625 104.3484802246094 1123.810668945313 107.5471725463867 1127.733642578125 107.5471725463867 M 754.8606567382813 107.5471725463867 C 758.7843627929688 107.5471725463867 761.9765014648438 104.3484802246094 761.9765014648438 100.4169540405273 C 761.9765014648438 96.486083984375 758.7843627929688 93.28826141357422 754.8606567382813 93.28826141357422 C 750.9376220703125 93.28826141357422 747.74609375 96.486083984375 747.74609375 100.4169540405273 C 747.74609375 104.3484802246094 750.9376220703125 107.5471725463867 754.8606567382813 107.5471725463867 M 1252.025634765625 100.9071731567383 C 1255.94873046875 100.9071731567383 1259.140258789063 97.7093505859375 1259.140258789063 93.77848052978516 C 1259.140258789063 89.84761047363281 1255.94873046875 86.6497802734375 1252.025634765625 86.6497802734375 C 1248.102783203125 86.6497802734375 1244.911254882813 89.84761047363281 1244.911254882813 93.77848052978516 C 1244.911254882813 97.7093505859375 1248.102783203125 100.9071731567383 1252.025634765625 100.9071731567383 M 340.5584716796875 100.9071731567383 C 344.4812927246094 100.9071731567383 347.6728210449219 97.7093505859375 347.6728210449219 93.77848052978516 C 347.6728210449219 89.84761047363281 344.4812927246094 86.6497802734375 340.5584716796875 86.6497802734375 C 336.6354370117188 86.6497802734375 333.4439086914063 89.84761047363281 333.4439086914063 93.77848052978516 C 333.4439086914063 97.7093505859375 336.6354370117188 100.9071731567383 340.5584716796875 100.9071731567383 M 9.114564895629883 82.6497802734375 C 13.03847789764404 82.6497802734375 16.23065185546875 79.45195770263672 16.23065185546875 75.52108764648438 C 16.23065185546875 71.59021759033203 13.03847789764404 68.39239501953125 9.114564895629883 68.39239501953125 C 5.191521644592285 68.39239501953125 2 71.59021759033203 2 75.52108764648438 C 2 79.45195770263672 5.191521644592285 82.6497802734375 9.114564895629883 82.6497802734375 M 920.583251953125 80.99021911621094 C 924.5062866210938 80.99021911621094 927.6978149414063 77.79238891601563 927.6978149414063 73.86151885986328 C 927.6978149414063 69.93064880371094 924.5062866210938 66.73282623291016 920.583251953125 66.73282623291016 C 916.6595458984375 66.73282623291016 913.4674072265625 69.93064880371094 913.4674072265625 73.86151885986328 C 913.4674072265625 77.79238891601563 916.6595458984375 80.99021911621094 920.583251953125 80.99021911621094 M 879.152587890625 76.00978088378906 C 883.0756225585938 76.00978088378906 886.2671508789063 72.81195831298828 886.2671508789063 68.88108825683594 C 886.2671508789063 64.95021820068359 883.0756225585938 61.75239181518555 879.152587890625 61.75239181518555 C 875.2297973632813 61.75239181518555 872.0382690429688 64.95021820068359 872.0382690429688 68.88108825683594 C 872.0382690429688 72.81195831298828 875.2297973632813 76.00978088378906 879.152587890625 76.00978088378906 M 174.8371734619141 76.00978088378906 C 178.7602233886719 76.00978088378906 181.9517364501953 72.81195831298828 181.9517364501953 68.88108825683594 C 181.9517364501953 64.95021820068359 178.7602233886719 61.75239181518555 174.8371734619141 61.75239181518555 C 170.9134826660156 61.75239181518555 167.7212982177734 64.95021820068359 167.7212982177734 68.88108825683594 C 167.7212982177734 72.81195831298828 170.9134826660156 76.00978088378906 174.8371734619141 76.00978088378906 M 1003.443054199219 74.3502197265625 C 1007.366088867188 74.3502197265625 1010.557800292969 71.15238952636719 1010.557800292969 67.22151947021484 C 1010.557800292969 63.29065322875977 1007.366088867188 60.09282684326172 1003.443054199219 60.09282684326172 C 999.5202026367188 60.09282684326172 996.3286743164063 63.29065322875977 996.3286743164063 67.22151947021484 C 996.3286743164063 71.15238952636719 999.5202026367188 74.3502197265625 1003.443054199219 74.3502197265625 M 1086.304565429688 59.41217422485352 C 1090.227661132813 59.41217422485352 1093.419189453125 56.21434783935547 1093.419189453125 52.28347778320313 C 1093.419189453125 48.35260772705078 1090.227661132813 45.15478134155273 1086.304565429688 45.15478134155273 C 1082.381469726563 45.15478134155273 1079.18994140625 48.35260772705078 1079.18994140625 52.28347778320313 C 1079.18994140625 56.21434783935547 1082.381469726563 59.41217422485352 1086.304565429688 59.41217422485352 M 50.54521560668945 54.43326187133789 C 54.46826171875 54.43326187133789 57.65978240966797 51.23543548583984 57.65978240966797 47.3045654296875 C 57.65978240966797 43.37369537353516 54.46826171875 40.17586898803711 50.54521560668945 40.17586898803711 C 46.62217330932617 40.17586898803711 43.4306526184082 43.37369537353516 43.4306526184082 47.3045654296875 C 43.4306526184082 51.23543548583984 46.62217330932617 54.43326187133789 50.54521560668945 54.43326187133789 M 962.0126342773438 52.77369689941406 C 965.9354248046875 52.77369689941406 969.126953125 49.57587051391602 969.126953125 45.64500045776367 C 969.126953125 41.71413040161133 965.9354248046875 38.51630401611328 962.0126342773438 38.51630401611328 C 958.0895385742188 38.51630401611328 954.8980712890625 41.71413040161133 954.8980712890625 45.64500045776367 C 954.8980712890625 49.57587051391602 958.0895385742188 52.77369689941406 962.0126342773438 52.77369689941406 M 216.2663116455078 51.11391448974609 C 220.1893463134766 51.11391448974609 223.3808746337891 47.91608810424805 223.3808746337891 43.9852180480957 C 223.3808746337891 40.05434799194336 220.1893463134766 36.85652160644531 216.2663116455078 36.85652160644531 C 212.3434753417969 36.85652160644531 209.1519622802734 40.05434799194336 209.1519622802734 43.9852180480957 C 209.1519622802734 47.91608810424805 212.3434753417969 51.11391448974609 216.2663116455078 51.11391448974609 M 1210.594970703125 44.47391128540039 C 1214.517822265625 44.47391128540039 1217.709350585938 41.27608871459961 1217.709350585938 37.34521865844727 C 1217.709350585938 33.41434860229492 1214.517822265625 30.21652221679688 1210.594970703125 30.21652221679688 C 1206.671997070313 30.21652221679688 1203.48046875 33.41434860229492 1203.48046875 37.34521865844727 C 1203.48046875 41.27608871459961 1206.671997070313 44.47391128540039 1210.594970703125 44.47391128540039 M 1044.873657226563 16.25739097595215 C 1048.796752929688 16.25739097595215 1051.98828125 13.05956554412842 1051.98828125 9.128695487976074 C 1051.98828125 5.197825908660889 1048.796752929688 2 1044.873657226563 2 C 1040.950927734375 2 1037.759399414063 5.197825908660889 1037.759399414063 9.128695487976074 C 1037.759399414063 13.05956554412842 1040.950927734375 16.25739097595215 1044.873657226563 16.25739097595215 M 837.7219848632813 161 C 832.688232421875 161 828.6073608398438 156.9128265380859 828.6073608398438 151.8713073730469 C 828.6073608398438 146.8297882080078 832.688232421875 142.7426147460938 837.7219848632813 142.7426147460938 C 842.7556762695313 142.7426147460938 846.8363037109375 146.8297882080078 846.8363037109375 151.8713073730469 C 846.8363037109375 156.9128265380859 842.7556762695313 161 837.7219848632813 161 Z M 796.2913208007813 161 C 791.2573852539063 161 787.1767578125 156.9128265380859 787.1767578125 151.8713073730469 C 787.1767578125 146.8297882080078 791.2573852539063 142.7426147460938 796.2913208007813 142.7426147460938 C 801.3250122070313 142.7426147460938 805.4058837890625 146.8297882080078 805.4058837890625 151.8713073730469 C 805.4058837890625 156.9128265380859 801.3250122070313 161 796.2913208007813 161 Z M 672.0006713867188 161 C 666.9669799804688 161 662.8862915039063 156.9128265380859 662.8862915039063 151.8713073730469 C 662.8862915039063 146.8297882080078 666.9669799804688 142.7426147460938 672.0006713867188 142.7426147460938 C 677.0345458984375 142.7426147460938 681.115234375 146.8297882080078 681.115234375 151.8713073730469 C 681.115234375 156.9128265380859 677.0345458984375 161 672.0006713867188 161 Z M 630.5700073242188 161 C 625.5363159179688 161 621.4556274414063 156.9128265380859 621.4556274414063 151.8713073730469 C 621.4556274414063 146.8297882080078 625.5363159179688 142.7426147460938 630.5700073242188 142.7426147460938 C 635.6039428710938 142.7426147460938 639.6845703125 146.8297882080078 639.6845703125 151.8713073730469 C 639.6845703125 156.9128265380859 635.6039428710938 161 630.5700073242188 161 Z M 589.1395874023438 161 C 584.1056518554688 161 580.0250244140625 156.9128265380859 580.0250244140625 151.8713073730469 C 580.0250244140625 146.8297882080078 584.1056518554688 142.7426147460938 589.1395874023438 142.7426147460938 C 594.1732788085938 142.7426147460938 598.25390625 146.8297882080078 598.25390625 151.8713073730469 C 598.25390625 156.9128265380859 594.1732788085938 161 589.1395874023438 161 Z M 713.4312744140625 142.7426147460938 C 708.3975830078125 142.7426147460938 704.3169555664063 138.6556549072266 704.3169555664063 133.6139068603516 C 704.3169555664063 128.5723876953125 708.3975830078125 124.4852142333984 713.4312744140625 124.4852142333984 C 718.4654541015625 124.4852142333984 722.5458984375 128.5723876953125 722.5458984375 133.6139068603516 C 722.5458984375 138.6556549072266 718.4654541015625 142.7426147460938 713.4312744140625 142.7426147460938 Z M 547.710205078125 142.7426147460938 C 542.6749877929688 142.7426147460938 538.5943603515625 138.6556549072266 538.5943603515625 133.6139068603516 C 538.5943603515625 128.5723876953125 542.6749877929688 124.4852142333984 547.710205078125 124.4852142333984 C 552.744140625 124.4852142333984 556.8247680664063 128.5723876953125 556.8247680664063 133.6139068603516 C 556.8247680664063 138.6556549072266 552.744140625 142.7426147460938 547.710205078125 142.7426147460938 Z M 464.8489074707031 141.0830383300781 C 459.8150024414063 141.0830383300781 455.7345581054688 136.9958648681641 455.7345581054688 131.954345703125 C 455.7345581054688 126.9110870361328 459.8150024414063 122.8241271972656 464.8489074707031 122.8241271972656 C 469.8828125 122.8241271972656 473.9634704589844 126.9110870361328 473.9634704589844 131.954345703125 C 473.9634704589844 136.9958648681641 469.8828125 141.0830383300781 464.8489074707031 141.0830383300781 Z M 257.6971740722656 137.7621765136719 C 252.6632537841797 137.7621765136719 248.5826110839844 133.6752166748047 248.5826110839844 128.6336975097656 C 248.5826110839844 123.5919570922852 252.6632537841797 119.504997253418 257.6971740722656 119.504997253418 C 262.7308654785156 119.504997253418 266.8115234375 123.5919570922852 266.8115234375 128.6336975097656 C 266.8115234375 133.6752166748047 262.7308654785156 137.7621765136719 257.6971740722656 137.7621765136719 Z M 1293.45654296875 134.4430389404297 C 1288.421142578125 134.4430389404297 1284.340454101563 130.3558654785156 1284.340454101563 125.3143463134766 C 1284.340454101563 120.2728271484375 1288.421142578125 116.1856536865234 1293.45654296875 116.1856536865234 C 1298.490234375 116.1856536865234 1302.570922851563 120.2728271484375 1302.570922851563 125.3143463134766 C 1302.570922851563 130.3558654785156 1298.490234375 134.4430389404297 1293.45654296875 134.4430389404297 Z M 381.9876098632813 127.8045654296875 C 376.9537048339844 127.8045654296875 372.873046875 123.7173919677734 372.873046875 118.6758728027344 C 372.873046875 113.6341323852539 376.9537048339844 109.5471725463867 381.9876098632813 109.5471725463867 C 387.0213012695313 109.5471725463867 391.1034851074219 113.6341323852539 391.1034851074219 118.6758728027344 C 391.1034851074219 123.7173919677734 387.0213012695313 127.8045654296875 381.9876098632813 127.8045654296875 Z M 1169.164306640625 126.1449966430664 C 1164.130493164063 126.1449966430664 1160.0498046875 122.0578231811523 1160.0498046875 117.0163040161133 C 1160.0498046875 111.9730453491211 1164.130493164063 107.8860855102539 1169.164306640625 107.8860855102539 C 1174.197998046875 107.8860855102539 1178.278930664063 111.9730453491211 1178.278930664063 117.0163040161133 C 1178.278930664063 122.0578231811523 1174.197998046875 126.1449966430664 1169.164306640625 126.1449966430664 Z M 506.2795715332031 126.1449966430664 C 501.2456665039063 126.1449966430664 497.1650085449219 122.0578231811523 497.1650085449219 117.0163040161133 C 497.1650085449219 111.9730453491211 501.2456665039063 107.8860855102539 506.2795715332031 107.8860855102539 C 511.3134765625 107.8860855102539 515.3941040039063 111.9730453491211 515.3941040039063 117.0163040161133 C 515.3941040039063 122.0578231811523 511.3134765625 126.1449966430664 506.2795715332031 126.1449966430664 Z M 91.97586822509766 126.1449966430664 C 86.94217681884766 126.1449966430664 82.86151885986328 122.0578231811523 82.86151885986328 117.0163040161133 C 82.86151885986328 111.9730453491211 86.94217681884766 107.8860855102539 91.97586822509766 107.8860855102539 C 97.00978088378906 107.8860855102539 101.0904312133789 111.9730453491211 101.0904312133789 117.0163040161133 C 101.0904312133789 122.0578231811523 97.00978088378906 126.1449966430664 91.97586822509766 126.1449966430664 Z M 299.1278381347656 117.84521484375 C 294.0939025878906 117.84521484375 290.0132751464844 113.7582626342773 290.0132751464844 108.7165222167969 C 290.0132751464844 103.6750030517578 294.0939025878906 99.58804321289063 299.1278381347656 99.58804321289063 C 304.1615295410156 99.58804321289063 308.2424011230469 103.6750030517578 308.2424011230469 108.7165222167969 C 308.2424011230469 113.7582626342773 304.1615295410156 117.84521484375 299.1278381347656 117.84521484375 Z M 1334.885620117188 111.2067413330078 C 1329.851928710938 111.2067413330078 1325.771118164063 107.1195678710938 1325.771118164063 102.0780410766602 C 1325.771118164063 97.03500366210938 1329.851928710938 92.94782257080078 1334.885620117188 92.94782257080078 C 1339.919311523438 92.94782257080078 1344 97.03500366210938 1344 102.0780410766602 C 1344 107.1195678710938 1339.919311523438 111.2067413330078 1334.885620117188 111.2067413330078 Z M 133.40673828125 111.2067413330078 C 128.3728332519531 111.2067413330078 124.2921752929688 107.1195678710938 124.2921752929688 102.0780410766602 C 124.2921752929688 97.03500366210938 128.3728332519531 92.94782257080078 133.40673828125 92.94782257080078 C 138.4404296875 92.94782257080078 142.5210876464844 97.03500366210938 142.5210876464844 102.0780410766602 C 142.5210876464844 107.1195678710938 138.4404296875 111.2067413330078 133.40673828125 111.2067413330078 Z M 1127.733642578125 109.5471725463867 C 1122.699951171875 109.5471725463867 1118.619140625 105.4602203369141 1118.619140625 100.4169540405273 C 1118.619140625 95.37543487548828 1122.699951171875 91.28826141357422 1127.733642578125 91.28826141357422 C 1132.769165039063 91.28826141357422 1136.849731445313 95.37543487548828 1136.849731445313 100.4169540405273 C 1136.849731445313 105.4602203369141 1132.769165039063 109.5471725463867 1127.733642578125 109.5471725463867 Z M 754.8606567382813 109.5471725463867 C 749.8267211914063 109.5471725463867 745.74609375 105.4602203369141 745.74609375 100.4169540405273 C 745.74609375 95.37543487548828 749.8267211914063 91.28826141357422 754.8606567382813 91.28826141357422 C 759.8943481445313 91.28826141357422 763.9765014648438 95.37543487548828 763.9765014648438 100.4169540405273 C 763.9765014648438 105.4602203369141 759.8943481445313 109.5471725463867 754.8606567382813 109.5471725463867 Z M 1252.025634765625 102.9071731567383 C 1246.991943359375 102.9071731567383 1242.911254882813 98.81999969482422 1242.911254882813 93.77848052978516 C 1242.911254882813 88.73695373535156 1246.991943359375 84.6497802734375 1252.025634765625 84.6497802734375 C 1257.0595703125 84.6497802734375 1261.140258789063 88.73695373535156 1261.140258789063 93.77848052978516 C 1261.140258789063 98.81999969482422 1257.0595703125 102.9071731567383 1252.025634765625 102.9071731567383 Z M 340.5584716796875 102.9071731567383 C 335.5245666503906 102.9071731567383 331.4439086914063 98.81999969482422 331.4439086914063 93.77848052978516 C 331.4439086914063 88.73695373535156 335.5245666503906 84.6497802734375 340.5584716796875 84.6497802734375 C 345.5921630859375 84.6497802734375 349.6728210449219 88.73695373535156 349.6728210449219 93.77848052978516 C 349.6728210449219 98.81999969482422 345.5921630859375 102.9071731567383 340.5584716796875 102.9071731567383 Z M 9.114564895629883 84.6497802734375 C 4.080652236938477 84.6497802734375 1.13686837721616e-13 80.56282806396484 1.13686837721616e-13 75.52108764648438 C 1.13686837721616e-13 70.47956848144531 4.080652236938477 66.39239501953125 9.114564895629883 66.39239501953125 C 14.14826107025146 66.39239501953125 18.23065185546875 70.47956848144531 18.23065185546875 75.52108764648438 C 18.23065185546875 80.56282806396484 14.14826107025146 84.6497802734375 9.114564895629883 84.6497802734375 Z M 920.583251953125 82.99021911621094 C 915.5480346679688 82.99021911621094 911.4674072265625 78.90304565429688 911.4674072265625 73.86151885986328 C 911.4674072265625 68.81978607177734 915.5480346679688 64.73282623291016 920.583251953125 64.73282623291016 C 925.6171875 64.73282623291016 929.6978149414063 68.81978607177734 929.6978149414063 73.86151885986328 C 929.6978149414063 78.90304565429688 925.6171875 82.99021911621094 920.583251953125 82.99021911621094 Z M 879.152587890625 78.00978088378906 C 874.118896484375 78.00978088378906 870.0382690429688 73.92282867431641 870.0382690429688 68.88108825683594 C 870.0382690429688 63.83956527709961 874.118896484375 59.75239181518555 879.152587890625 59.75239181518555 C 884.1865234375 59.75239181518555 888.2671508789063 63.83956527709961 888.2671508789063 68.88108825683594 C 888.2671508789063 73.92282867431641 884.1865234375 78.00978088378906 879.152587890625 78.00978088378906 Z M 174.8371734619141 78.00978088378906 C 169.8019561767578 78.00978088378906 165.7212982177734 73.92282867431641 165.7212982177734 68.88108825683594 C 165.7212982177734 63.83956527709961 169.8019561767578 59.75239181518555 174.8371734619141 59.75239181518555 C 179.87109375 59.75239181518555 183.9517364501953 63.83956527709961 183.9517364501953 68.88108825683594 C 183.9517364501953 73.92282867431641 179.87109375 78.00978088378906 174.8371734619141 78.00978088378906 Z M 1003.443054199219 76.3502197265625 C 998.4093627929688 76.3502197265625 994.3286743164063 72.26304626464844 994.3286743164063 67.22151947021484 C 994.3286743164063 62.17978286743164 998.4093627929688 58.09282684326172 1003.443054199219 58.09282684326172 C 1008.476928710938 58.09282684326172 1012.557800292969 62.17978286743164 1012.557800292969 67.22151947021484 C 1012.557800292969 72.26304626464844 1008.476928710938 76.3502197265625 1003.443054199219 76.3502197265625 Z M 1086.304565429688 61.41217422485352 C 1081.270629882813 61.41217422485352 1077.18994140625 57.32500076293945 1077.18994140625 52.28347778320313 C 1077.18994140625 47.24173736572266 1081.270629882813 43.15478134155273 1086.304565429688 43.15478134155273 C 1091.338256835938 43.15478134155273 1095.419189453125 47.24173736572266 1095.419189453125 52.28347778320313 C 1095.419189453125 57.32500076293945 1091.338256835938 61.41217422485352 1086.304565429688 61.41217422485352 Z M 50.54521560668945 56.43326187133789 C 45.51152038574219 56.43326187133789 41.4306526184082 52.34608840942383 41.4306526184082 47.3045654296875 C 41.4306526184082 42.26282501220703 45.51152038574219 38.17586898803711 50.54521560668945 38.17586898803711 C 55.57891464233398 38.17586898803711 59.65978240966797 42.26282501220703 59.65978240966797 47.3045654296875 C 59.65978240966797 52.34608840942383 55.57891464233398 56.43326187133789 50.54521560668945 56.43326187133789 Z M 962.0126342773438 54.77369689941406 C 956.9789428710938 54.77369689941406 952.8980712890625 50.6865234375 952.8980712890625 45.64500045776367 C 952.8980712890625 40.6032600402832 956.9789428710938 36.51630401611328 962.0126342773438 36.51630401611328 C 967.0463256835938 36.51630401611328 971.126953125 40.6032600402832 971.126953125 45.64500045776367 C 971.126953125 50.6865234375 967.0463256835938 54.77369689941406 962.0126342773438 54.77369689941406 Z M 216.2663116455078 53.11391448974609 C 211.2326049804688 53.11391448974609 207.1519622802734 49.02695465087891 207.1519622802734 43.9852180480957 C 207.1519622802734 38.94369506835938 211.2326049804688 34.85652160644531 216.2663116455078 34.85652160644531 C 221.3002166748047 34.85652160644531 225.3808746337891 38.94369506835938 225.3808746337891 43.9852180480957 C 225.3808746337891 49.02695465087891 221.3002166748047 53.11391448974609 216.2663116455078 53.11391448974609 Z M 1210.594970703125 46.47391128540039 C 1205.561279296875 46.47391128540039 1201.48046875 42.38695526123047 1201.48046875 37.34521865844727 C 1201.48046875 32.30369567871094 1205.561279296875 28.21652221679688 1210.594970703125 28.21652221679688 C 1215.62890625 28.21652221679688 1219.709350585938 32.30369567871094 1219.709350585938 37.34521865844727 C 1219.709350585938 42.38695526123047 1215.62890625 46.47391128540039 1210.594970703125 46.47391128540039 Z M 1044.873657226563 18.25739097595215 C 1039.839965820313 18.25739097595215 1035.759399414063 14.17021751403809 1035.759399414063 9.128695487976074 C 1035.759399414063 4.087173938751221 1039.839965820313 1.4210854715202e-14 1044.873657226563 1.4210854715202e-14 C 1049.907592773438 1.4210854715202e-14 1053.98828125 4.087173938751221 1053.98828125 9.128695487976074 C 1053.98828125 14.17021751403809 1049.907592773438 18.25739097595215 1044.873657226563 18.25739097595215 Z" stroke="none" fill="#fff"/>
      </g>
    </g>
  </g>
</svg>
