<svg xmlns="http://www.w3.org/2000/svg" width="647" height="239" viewBox="0 0 647 239">
  <g id="Appliance_health_3" transform="translate(-925 -1005)">
    <rect id="Rectangle_132" data-name="Rectangle 132" width="604" height="1" transform="translate(963 1051)" fill="#eaf0f4"/>
    <text id="_30k" data-name="$30k" transform="translate(951 1055)" fill="#d5d5dc" font-size="11" font-family="Poppins-Regular, Poppins"><tspan x="-25.894" y="0">$30k</tspan></text>
    <rect id="Rectangle_132-2" data-name="Rectangle 132" width="604" height="1" transform="translate(963 1094)" fill="#eaf0f4"/>
    <text id="_25k" data-name="$25k" transform="translate(951 1098)" fill="#d5d5dc" font-size="11" font-family="Poppins-Regular, Poppins"><tspan x="-25.74" y="0">$25k</tspan></text>
    <rect id="Rectangle_132-3" data-name="Rectangle 132" width="604" height="1" transform="translate(963 1135)" fill="#eaf0f4"/>
    <text id="_20k" data-name="$20k" transform="translate(951 1139)" fill="#d5d5dc" font-size="11" font-family="Poppins-Regular, Poppins"><tspan x="-25.74" y="0">$20k</tspan></text>
    <rect id="Rectangle_132-4" data-name="Rectangle 132" width="604" height="1" transform="translate(963 1176)" fill="#eaf0f4"/>
    <text id="_15k" data-name="$15k" transform="translate(951 1180)" fill="#d5d5dc" font-size="11" font-family="Poppins-Regular, Poppins"><tspan x="-22.935" y="0">$15k</tspan></text>
    <rect id="Rectangle_132-5" data-name="Rectangle 132" width="604" height="1" transform="translate(963 1217)" fill="#eaf0f4"/>
    <text id="_10k" data-name="$10k" transform="translate(951 1221)" fill="#d5d5dc" font-size="11" font-family="Poppins-Regular, Poppins"><tspan x="-22.935" y="0">$10k</tspan></text>
    <text id="Mon" transform="translate(967 1240)" fill="#d5d5dc" font-size="11" font-family="Poppins-Regular, Poppins"><tspan x="0" y="0">Mon</tspan></text>
    <text id="Tue" transform="translate(1040 1240)" fill="#d5d5dc" font-size="11" font-family="Poppins-Regular, Poppins"><tspan x="0" y="0">Tue</tspan></text>
    <text id="Wed" transform="translate(1113 1240)" fill="#d5d5dc" font-size="11" font-family="Poppins-Regular, Poppins"><tspan x="0" y="0">Wed</tspan></text>
    <text id="Thu" transform="translate(1186 1240)" fill="#d5d5dc" font-size="11" font-family="Poppins-Regular, Poppins"><tspan x="0" y="0">Thu</tspan></text>
    <text id="Fri" transform="translate(1259 1240)" fill="#d5d5dc" font-size="11" font-family="Poppins-Regular, Poppins"><tspan x="0" y="0">Fri</tspan></text>
    <text id="Sat" transform="translate(1332 1240)" fill="#d5d5dc" font-size="11" font-family="Poppins-Regular, Poppins"><tspan x="0" y="0">Sat</tspan></text>
    <text id="Sun" transform="translate(1405 1240)" fill="#d5d5dc" font-size="11" font-family="Poppins-Regular, Poppins"><tspan x="0" y="0">Sun</tspan></text>
    <text id="Sun-2" data-name="Sun" transform="translate(1478 1240)" fill="#d5d5dc" font-size="11" font-family="Poppins-Regular, Poppins"><tspan x="0" y="0">Sun</tspan></text>
    <text id="Sun-3" data-name="Sun" transform="translate(1551 1240)" fill="#d5d5dc" font-size="11" font-family="Poppins-Regular, Poppins"><tspan x="0" y="0">Sun</tspan></text>
    <g id="Chart.Content" transform="translate(963 1082)">
      <g id="Sun-4" data-name="Sun" transform="translate(578.408 30)">
        <path id="Green.Bar_Sales_" data-name="Green.Bar (Sales)" d="M3,0H3A3,3,0,0,1,6,3V89a0,0,0,0,1,0,0H0a0,0,0,0,1,0,0V3A3,3,0,0,1,3,0Z" transform="translate(19.592 17)" fill="#5fe3a1"/>
        <path id="Blue.Bar_Visits_" data-name="Blue.Bar (Visits)" d="M3,0H3A3,3,0,0,1,6,3V106a0,0,0,0,1,0,0H0a0,0,0,0,1,0,0V3A3,3,0,0,1,3,0Z" transform="translate(9.592)" fill="#56d9fe"/>
        <path id="Purple.Bar_Items_" data-name="Purple.Bar (Items)" d="M3,0H3A3,3,0,0,1,6,3V77a0,0,0,0,1,0,0H0a0,0,0,0,1,0,0V3A3,3,0,0,1,3,0Z" transform="translate(-0.408 29)" fill="#a4a1fb"/>
      </g>
      <g id="Sat-2" data-name="Sat" transform="translate(481.786)">
        <path id="Green.Bar_Sales_2" data-name="Green.Bar (Sales)" d="M3,0H3A3,3,0,0,1,6,3V121a0,0,0,0,1,0,0H0a0,0,0,0,1,0,0V3A3,3,0,0,1,3,0Z" transform="translate(20.214 15)" fill="#5fe3a1"/>
        <path id="Blue.Bar_Visits_2" data-name="Blue.Bar (Visits)" d="M3,0H3A3,3,0,0,1,6,3V136a0,0,0,0,1,0,0H0a0,0,0,0,1,0,0V3A3,3,0,0,1,3,0Z" transform="translate(10.214)" fill="#56d9fe"/>
        <path id="Purple.Bar_Items_2" data-name="Purple.Bar (Items)" d="M3,0H3A3,3,0,0,1,6,3V97a0,0,0,0,1,0,0H0a0,0,0,0,1,0,0V3A3,3,0,0,1,3,0Z" transform="translate(0.214 39)" fill="#a4a1fb"/>
      </g>
      <g id="Fri-2" data-name="Fri" transform="translate(385.164 68)">
        <path id="Green.Bar_Sales_3" data-name="Green.Bar (Sales)" d="M3,0H3A3,3,0,0,1,6,3V52a0,0,0,0,1,0,0H0a0,0,0,0,1,0,0V3A3,3,0,0,1,3,0Z" transform="translate(19.836 16)" fill="#5fe3a1"/>
        <path id="Blue.Bar_Visits_3" data-name="Blue.Bar (Visits)" d="M3,0H3A3,3,0,0,1,6,3V68a0,0,0,0,1,0,0H0a0,0,0,0,1,0,0V3A3,3,0,0,1,3,0Z" transform="translate(9.836)" fill="#56d9fe"/>
        <path id="Purple.Bar_Items_3" data-name="Purple.Bar (Items)" d="M3,0H3A3,3,0,0,1,6,3V58a0,0,0,0,1,0,0H0a0,0,0,0,1,0,0V3A3,3,0,0,1,3,0Z" transform="translate(-0.164 10)" fill="#a4a1fb"/>
      </g>
      <g id="Thu-2" data-name="Thu" transform="translate(289.866 79)">
        <path id="Green.Bar_Sales_4" data-name="Green.Bar (Sales)" d="M3,0H3A3,3,0,0,1,6,3V19a0,0,0,0,1,0,0H0a0,0,0,0,1,0,0V3A3,3,0,0,1,3,0Z" transform="translate(20.134 38)" fill="#5fe3a1"/>
        <path id="Blue.Bar_Visits_4" data-name="Blue.Bar (Visits)" d="M3,0H3A3,3,0,0,1,6,3V26a0,0,0,0,1,0,0H0a0,0,0,0,1,0,0V3A3,3,0,0,1,3,0Z" transform="translate(10.134 31)" fill="#56d9fe"/>
        <path id="Purple.Bar_Items_4" data-name="Purple.Bar (Items)" d="M3,0H3A3,3,0,0,1,6,3V57a0,0,0,0,1,0,0H0a0,0,0,0,1,0,0V3A3,3,0,0,1,3,0Z" transform="translate(0.134)" fill="#a4a1fb"/>
      </g>
      <g id="Wed-2" data-name="Wed" transform="translate(193.244 66)">
        <path id="Green.Bar_Sales_5" data-name="Green.Bar (Sales)" d="M3,0H3A3,3,0,0,1,6,3V22a0,0,0,0,1,0,0H0a0,0,0,0,1,0,0V3A3,3,0,0,1,3,0Z" transform="translate(19.756 48)" fill="#5fe3a1"/>
        <path id="Blue.Bar_Visits_5" data-name="Blue.Bar (Visits)" d="M3,0H3A3,3,0,0,1,6,3V70a0,0,0,0,1,0,0H0a0,0,0,0,1,0,0V3A3,3,0,0,1,3,0Z" transform="translate(9.756)" fill="#56d9fe"/>
        <path id="Purple.Bar_Items_5" data-name="Purple.Bar (Items)" d="M3,0H3A3,3,0,0,1,6,3V57a0,0,0,0,1,0,0H0a0,0,0,0,1,0,0V3A3,3,0,0,1,3,0Z" transform="translate(-0.244 13)" fill="#a4a1fb"/>
      </g>
      <g id="Tue-2" data-name="Tue" transform="translate(96.622 62)">
        <path id="Green.Bar_Sales_6" data-name="Green.Bar (Sales)" d="M3,0H3A3,3,0,0,1,6,3V32.823a0,0,0,0,1,0,0H0a0,0,0,0,1,0,0V3A3,3,0,0,1,3,0Z" transform="translate(20 41.177)" fill="#5fe3a1"/>
        <path id="Blue.Bar_Visits_6" data-name="Blue.Bar (Visits)" d="M3,0H3A3,3,0,0,1,6,3V74a0,0,0,0,1,0,0H0a0,0,0,0,1,0,0V3A3,3,0,0,1,3,0Z" transform="translate(10.378)" fill="#56d9fe"/>
        <path id="Purple.Bar_Items_6" data-name="Purple.Bar (Items)" d="M3,0H3A3,3,0,0,1,6,3V53.71a0,0,0,0,1,0,0H0a0,0,0,0,1,0,0V3A3,3,0,0,1,3,0Z" transform="translate(0 20.29)" fill="#a4a1fb"/>
      </g>
      <g id="Mon-2" data-name="Mon" transform="translate(0 30)">
        <path id="Green.Bar_Sales_7" data-name="Green.Bar (Sales)" d="M3,0H3A3,3,0,0,1,6,3V54a0,0,0,0,1,0,0H0a0,0,0,0,1,0,0V3A3,3,0,0,1,3,0Z" transform="translate(20 52)" fill="#5fe3a1"/>
        <path id="Blue.Bar_Visits_7" data-name="Blue.Bar (Visits)" d="M3,0H3A3,3,0,0,1,6,3V106a0,0,0,0,1,0,0H0a0,0,0,0,1,0,0V3A3,3,0,0,1,3,0Z" transform="translate(10)" fill="#56d9fe"/>
        <path id="Purple.Bar_Items_7" data-name="Purple.Bar (Items)" d="M3,0H3A3,3,0,0,1,6,3V77a0,0,0,0,1,0,0H0a0,0,0,0,1,0,0V3A3,3,0,0,1,3,0Z" transform="translate(0 29)" fill="#a4a1fb"/>
      </g>
    </g>
    <g id="Purple.Ellipse" transform="translate(1127 1007)" fill="#fff" stroke="#a4a1fb" stroke-width="3">
      <circle cx="7" cy="7" r="7" stroke="none"/>
      <circle cx="7" cy="7" r="5.5" fill="none"/>
    </g>
    <text id="Germany" transform="translate(1149 1019)" fill="#d5d5dc" font-size="13" font-family="Poppins-Regular, Poppins"><tspan x="0" y="0">Germany</tspan></text>
    <g id="Blue.Ellipse" transform="translate(1234 1007)" fill="#fff" stroke="#56d9fe" stroke-width="3">
      <circle cx="7" cy="7" r="7" stroke="none"/>
      <circle cx="7" cy="7" r="5.5" fill="none"/>
    </g>
    <text id="France" transform="translate(1256 1019)" fill="#d5d5dc" font-size="13" font-family="Poppins-Regular, Poppins"><tspan x="0" y="0">France</tspan></text>
    <g id="Green.Ellipse" transform="translate(1328 1007)" fill="#fff" stroke="#5fe3a1" stroke-width="3">
      <circle cx="7" cy="7" r="7" stroke="none"/>
      <circle cx="7" cy="7" r="5.5" fill="none"/>
    </g>
    <text id="Portugal" transform="translate(1350 1019)" fill="#d5d5dc" font-size="13" font-family="Poppins-Regular, Poppins"><tspan x="0" y="0">Portugal</tspan></text>
  </g>
</svg>
