<svg xmlns="http://www.w3.org/2000/svg" xmlns:xlink="http://www.w3.org/1999/xlink" width="518.818" height="259" viewBox="0 0 518.818 259">
  <defs>
    <clipPath id="clip-path">
      <rect width="469" height="225.953" fill="none"/>
    </clipPath>
    <linearGradient id="linear-gradient" x1="0.5" y1="-0.833" x2="0.5" y2="1" gradientUnits="objectBoundingBox">
      <stop offset="0" stop-color="#a3a1fb"/>
      <stop offset="1" stop-color="#a3a1fb" stop-opacity="0.102"/>
    </linearGradient>
    <linearGradient id="linear-gradient-2" x1="0.5" y1="-0.833" x2="0.5" y2="1" gradientUnits="objectBoundingBox">
      <stop offset="0" stop-color="#56d9fe"/>
      <stop offset="1" stop-color="#56d9fe" stop-opacity="0.11"/>
    </linearGradient>
    <linearGradient id="linear-gradient-3" x1="0.5" y1="-0.823" x2="0.5" y2="1" gradientUnits="objectBoundingBox">
      <stop offset="0" stop-color="#5fe3a1"/>
      <stop offset="1" stop-color="#5fe3a1" stop-opacity="0.11"/>
    </linearGradient>
  </defs>
  <g id="Appliance_health_2" transform="translate(-296 -992)">
    <rect id="Rectangle_1470" data-name="Rectangle 1470" width="469.048" height="1.172" transform="translate(345 999.999)" fill="#eaf0f4"/>
    <text id="_12_000" data-name="12,000" transform="translate(329 1004)" fill="#d5d5dc" font-size="11" font-family="SegoeUI, Segoe UI"><tspan x="-32.033" y="0">12,000</tspan></text>
    <rect id="Rectangle_1470-2" data-name="Rectangle 1470" width="469.048" height="1.172" transform="translate(345 1044.999)" fill="#eaf0f4"/>
    <text id="_10_000" data-name="10,000" transform="translate(329 1049)" fill="#d5d5dc" font-size="11" font-family="SegoeUI, Segoe UI"><tspan x="-32.033" y="0">10,000</tspan></text>
    <rect id="Rectangle_1470-3" data-name="Rectangle 1470" width="469.048" height="1.172" transform="translate(345 1089.999)" fill="#eaf0f4"/>
    <text id="_8_000" data-name="8,000" transform="translate(329 1094)" fill="#d5d5dc" font-size="11" font-family="SegoeUI, Segoe UI"><tspan x="-26.104" y="0">8,000</tspan></text>
    <rect id="Rectangle_1470-4" data-name="Rectangle 1470" width="469.048" height="1.172" transform="translate(345 1134.999)" fill="#eaf0f4"/>
    <text id="_6_000" data-name="6,000" transform="translate(329 1139)" fill="#d5d5dc" font-size="11" font-family="SegoeUI, Segoe UI"><tspan x="-26.104" y="0">6,000</tspan></text>
    <rect id="Rectangle_1470-5" data-name="Rectangle 1470" width="469.048" height="1.172" transform="translate(345 1179.999)" fill="#eaf0f4"/>
    <text id="_4_000" data-name="4,000" transform="translate(329 1184)" fill="#d5d5dc" font-size="11" font-family="SegoeUI, Segoe UI"><tspan x="-26.104" y="0">4,000</tspan></text>
    <rect id="Rectangle_1470-6" data-name="Rectangle 1470" width="469.048" height="1.172" transform="translate(345 1224.999)" fill="#eaf0f4"/>
    <text id="_0" data-name="0" transform="translate(329 1229)" fill="#d5d5dc" font-size="11" font-family="SegoeUI, Segoe UI"><tspan x="-5.93" y="0">0</tspan></text>
    <g id="gridX" transform="translate(345.55 999.895)" clip-path="url(#clip-path)">
      <g transform="translate(-269.55 -227.895)">
        <path id="Path_350" data-name="Path 350" d="M-768.547,11164.811v-225.953" transform="translate(1038.097 -10710.963)" fill="none" stroke="#eaf0f4" stroke-width="1"/>
      </g>
      <g transform="translate(-191.55 -227.895)">
        <path id="Path_350-2" data-name="Path 350" d="M-768.547,11164.811v-225.953" transform="translate(1038.097 -10710.963)" fill="none" stroke="#eaf0f4" stroke-width="1"/>
      </g>
      <g transform="translate(-113.55 -227.895)">
        <path id="Path_350-3" data-name="Path 350" d="M-768.547,11164.811v-225.953" transform="translate(1038.097 -10710.963)" fill="none" stroke="#eaf0f4" stroke-width="1"/>
      </g>
      <g transform="translate(-35.55 -227.895)">
        <path id="Path_350-4" data-name="Path 350" d="M-768.547,11164.811v-225.953" transform="translate(1038.097 -10710.963)" fill="none" stroke="#eaf0f4" stroke-width="1"/>
      </g>
      <g transform="translate(42.45 -227.895)">
        <path id="Path_350-5" data-name="Path 350" d="M-768.547,11164.811v-225.953" transform="translate(1038.097 -10710.963)" fill="none" stroke="#eaf0f4" stroke-width="1"/>
      </g>
      <g transform="translate(120.45 -227.895)">
        <path id="Path_350-6" data-name="Path 350" d="M-768.547,11164.811v-225.953" transform="translate(1038.097 -10710.963)" fill="none" stroke="#eaf0f4" stroke-width="1"/>
      </g>
      <g transform="translate(198.45 -227.895)">
        <path id="Path_350-7" data-name="Path 350" d="M-768.547,11164.811v-225.953" transform="translate(1038.097 -10710.963)" fill="none" stroke="#eaf0f4" stroke-width="1"/>
      </g>
    </g>
    <g id="page" transform="translate(-45 670)">
      <text id="Page_A" data-name="Page A" transform="translate(431 578)" fill="#d5d5dc" font-size="11" font-family="SegoeUI, Segoe UI"><tspan x="-16.86" y="0">Page A</tspan></text>
    </g>
    <g id="page-2" data-name="page" transform="translate(33 670)">
      <text id="Page_B" data-name="Page B" transform="translate(431 578)" fill="#d5d5dc" font-size="11" font-family="SegoeUI, Segoe UI"><tspan x="-16.465" y="0">Page B</tspan></text>
    </g>
    <g id="page-3" data-name="page" transform="translate(111 670)">
      <text id="Page_C" data-name="Page C" transform="translate(431 578)" fill="#d5d5dc" font-size="11" font-family="SegoeUI, Segoe UI"><tspan x="-16.718" y="0">Page C</tspan></text>
    </g>
    <g id="page-4" data-name="page" transform="translate(189 670)">
      <text id="Page_D" data-name="Page D" transform="translate(431 578)" fill="#d5d5dc" font-size="11" font-family="SegoeUI, Segoe UI"><tspan x="-17.169" y="0">Page D</tspan></text>
    </g>
    <g id="page-5" data-name="page" transform="translate(267 670)">
      <text id="Page_E" data-name="Page E" transform="translate(431 578)" fill="#d5d5dc" font-size="11" font-family="SegoeUI, Segoe UI"><tspan x="-16.094" y="0">Page E</tspan></text>
    </g>
    <g id="page-6" data-name="page" transform="translate(345 670)">
      <text id="Page_F" data-name="Page F" transform="translate(431 578)" fill="#d5d5dc" font-size="11" font-family="SegoeUI, Segoe UI"><tspan x="-15.998" y="0">Page F</tspan></text>
    </g>
    <g id="chart" transform="translate(-537 -1332.875)">
      <path id="Path_383" data-name="Path 383" d="M-757.182,11775.262s38.9,115.928,76.732,115.928,39.706-113.945,79.245-113.945,47.2,127.66,77.49,121.838,39.694-49.169,79.855-53.768,62.193,5.484,80.535,6.618,74.868-36.384,74.868-36.384" transform="translate(1640 -9441.999)" fill="none" stroke="#a3a1fb" stroke-width="1"/>
      <path id="Path_384" data-name="Path 384" d="M-288.459,11815.549s-56.526,37.516-74.868,36.384-41.01-10.789-81.171-6.188-48.934,47.515-79.219,53.338-37.824-122.29-77.363-122.29-41.535,114.4-79.372,114.4-76.732-115.928-76.732-115.928v224.754h468.724Z" transform="translate(1640 -9441.999)" fill="url(#linear-gradient)"/>
    </g>
    <g id="chart-2" data-name="chart" transform="translate(-537 -1211)">
      <path id="Path_383-2" data-name="Path 383" d="M-757.182,11743.464s38.9,69.467,76.732,69.467,40.045-115.979,79.584-115.979,46.866,124.2,77.151,120.707,40.249-52,80.41-54.759,61.638,25.827,79.979,26.506,74.868-21.8,74.868-21.8" transform="translate(1640 -9442)" fill="none" stroke="#56d9fe" stroke-width="1"/>
      <path id="Path_384-2" data-name="Path 384" d="M-288.459,11767.6s-56.526,22.48-74.868,21.8-39.819-29.262-79.979-26.506-50.125,51.27-80.41,54.759-37.612-120.707-77.151-120.707-41.748,115.979-79.584,115.979-76.732-69.467-76.732-69.467v134.678h468.724Z" transform="translate(1640 -9442)" fill="url(#linear-gradient-2)"/>
    </g>
    <g id="chart-3" data-name="chart" transform="translate(-537 -1211)">
      <path id="Path_382" data-name="Path 382" d="M-757.182,11834.317s52.348,26.218,76.859,26.218,54.61-22.228,78.852-22.228,48.563,34.884,77.214,28.2,36.119-66.223,80.368-66.223,53.673,54.037,77.392,60.253,77.162-37.81,77.162-37.81v56.069H-757.182Z" transform="translate(1640 -9442)" fill="url(#linear-gradient-3)"/>
      <path id="Path_381" data-name="Path 381" d="M-757.182,11834.317s52.348,26.218,76.859,26.218,54.61-22.228,78.852-22.228,48.563,34.884,77.214,28.2,36.119-66.223,80.368-66.223,53.673,54.037,77.392,60.253,77.162-37.81,77.162-37.81" transform="translate(1640 -9442)" fill="none" stroke="#5fe3a1" stroke-width="1"/>
    </g>
  </g>
</svg>
