<svg xmlns="http://www.w3.org/2000/svg" width="21.106" height="342.663" viewBox="0 0 21.106 342.663">
  <g id="arrow" transform="translate(-508.894 -1577.714)">
    <path id="Icon_awesome-arrow-right" data-name="Icon awesome-arrow-right" d="M8.974,4.025,10.02,2.979a1.126,1.126,0,0,1,1.6,0l9.158,9.153a1.126,1.126,0,0,1,0,1.6l-9.158,9.158a1.126,1.126,0,0,1-1.6,0L8.974,21.841a1.132,1.132,0,0,1,.019-1.616l5.676-5.408H1.131A1.128,1.128,0,0,1,0,13.687V12.179a1.128,1.128,0,0,1,1.131-1.131H14.669L8.993,5.641A1.124,1.124,0,0,1,8.974,4.025Z" transform="translate(508.894 1575.067)" fill="#848da7"/>
    <path id="Icon_awesome-arrow-right-2" data-name="Icon awesome-arrow-right" d="M8.974,4.025,10.02,2.979a1.126,1.126,0,0,1,1.6,0l9.158,9.153a1.126,1.126,0,0,1,0,1.6l-9.158,9.158a1.126,1.126,0,0,1-1.6,0L8.974,21.841a1.132,1.132,0,0,1,.019-1.616l5.676-5.408H1.131A1.128,1.128,0,0,1,0,13.687V12.179a1.128,1.128,0,0,1,1.131-1.131H14.669L8.993,5.641A1.124,1.124,0,0,1,8.974,4.025Z" transform="translate(508.894 1685.067)" fill="#848da7"/>
    <path id="Icon_awesome-arrow-right-3" data-name="Icon awesome-arrow-right" d="M8.974,4.025,10.02,2.979a1.126,1.126,0,0,1,1.6,0l9.158,9.153a1.126,1.126,0,0,1,0,1.6l-9.158,9.158a1.126,1.126,0,0,1-1.6,0L8.974,21.841a1.132,1.132,0,0,1,.019-1.616l5.676-5.408H1.131A1.128,1.128,0,0,1,0,13.687V12.179a1.128,1.128,0,0,1,1.131-1.131H14.669L8.993,5.641A1.124,1.124,0,0,1,8.974,4.025Z" transform="translate(508.894 1790.862)" fill="#848da7"/>
    <path id="Icon_awesome-arrow-right-4" data-name="Icon awesome-arrow-right" d="M8.974,4.025,10.02,2.979a1.126,1.126,0,0,1,1.6,0l9.158,9.153a1.126,1.126,0,0,1,0,1.6l-9.158,9.158a1.126,1.126,0,0,1-1.6,0L8.974,21.841a1.132,1.132,0,0,1,.019-1.616l5.676-5.408H1.131A1.128,1.128,0,0,1,0,13.687V12.179a1.128,1.128,0,0,1,1.131-1.131H14.669L8.993,5.641A1.124,1.124,0,0,1,8.974,4.025Z" transform="translate(508.894 1897.158)" fill="#848da7"/>
  </g>
</svg>
