<svg xmlns="http://www.w3.org/2000/svg" width="1862.513" height="543.023" viewBox="0 0 1862.513 543.023">
  <g id="Cyber_Third_Map_1" data-name="Cyber Third Map_1" transform="translate(-28.378 -161)">
    <path id="Path_123" data-name="Path 123" d="M0,369.791c55.337-61.925,110.675-123.85,166.012-148.4s110.674-11.736,166.012,29.194S442.7,360.554,498.035,369.791,608.71,328.463,664.047,262.746,774.722,116.165,830.059,131.373s110.675,126.491,166.012,149.62,110.674-41.9,166.012-90.015,110.674-79.324,166.012-90.015,110.674-.867,166.012,30.41,110.675,84.007,166.012,65.687S1770.793,89.37,1826.13,0" transform="translate(46.361 258.609)" fill="rgba(0,0,0,0)" stroke="#00ccf2" stroke-width="8"/>
    <path id="Path_126" data-name="Path 126" d="M0,369.791c55.337-61.925,110.675-123.85,166.012-148.4s110.674-11.736,166.012,29.194S442.7,360.554,498.035,369.791,608.71,328.463,664.047,262.746,774.722,116.165,830.059,131.373s110.675,126.491,166.012,149.62,110.674-41.9,166.012-90.015,110.674-79.324,166.012-90.015,110.674-.867,166.012,30.41,110.675,84.007,166.012,65.687S1770.793,89.37,1826.13,0" transform="translate(46.361 258.609)" fill="none" stroke="#37a28c" stroke-width="5"/>
    <g id="Ellipse_42" data-name="Ellipse 42" transform="translate(34 621)" fill="#00ccf2" stroke="#272d3b" stroke-width="5">
      <circle cx="8" cy="8" r="8" stroke="none"/>
      <circle cx="8" cy="8" r="5.5" fill="none"/>
    </g>
    <g id="Ellipse_43" data-name="Ellipse 43" transform="translate(139.725 514.441)" fill="#00ccf2" stroke="#272d3b" stroke-width="5">
      <circle cx="8" cy="8" r="8" stroke="none"/>
      <circle cx="8" cy="8" r="5.5" fill="none"/>
    </g>
    <g id="Group_March" data-name="Group March" transform="translate(347.686 409.788)">
      <g id="Ellipse_44" data-name="Ellipse 44" transform="translate(20.438 90.237)" fill="#00ccf2" stroke="#272d3b" stroke-width="5">
        <circle cx="8" cy="8" r="8" stroke="none"/>
        <circle cx="8" cy="8" r="5.5" fill="none"/>
      </g>
      <g id="Group_March-2" data-name="Group March" opacity="0">
        <g id="Group_80" data-name="Group 80">
          <path id="Union_1" data-name="Union 1" d="M28.352,68.6,22.437,60H10A10,10,0,0,1,0,50V10A10,10,0,0,1,10,0H50A10,10,0,0,1,60,10V50A10,10,0,0,1,50,60H37.562l-5.915,8.6a2,2,0,0,1-3.3,0Z" fill="#f5fbff"/>
        </g>
        <text id="_33_" data-name="33%" transform="translate(15.102 25.935)" fill="#272d3b" font-size="16" font-family="Montserrat-Bold, Montserrat" font-weight="700"><tspan x="0" y="0">33%</tspan></text>
        <text id="March" transform="translate(7.102 48.935)" fill="#272d3b" font-size="14" font-family="Montserrat-Regular, Montserrat"><tspan x="0" y="0">March</tspan></text>
      </g>
    </g>
    <g id="Ellipse_45" data-name="Ellipse 45" transform="translate(540.007 620.595)" fill="#00ccf2" stroke="#272d3b" stroke-width="5">
      <circle cx="8" cy="8" r="8" stroke="none"/>
      <circle cx="8" cy="8" r="5.5" fill="none"/>
    </g>
    <g id="Ellipse_46" data-name="Ellipse 46" transform="translate(705.144 511.026)" fill="#00ccf2" stroke="#272d3b" stroke-width="5">
      <circle cx="8" cy="8" r="8" stroke="none"/>
      <circle cx="8" cy="8" r="5.5" fill="none"/>
    </g>
    <g id="Ellipse_47" data-name="Ellipse 47" transform="translate(869 383)" fill="#00ccf2" stroke="#272d3b" stroke-width="5">
      <circle cx="8" cy="8" r="8" stroke="none"/>
      <circle cx="8" cy="8" r="5.5" fill="none"/>
    </g>
    <g id="Ellipse_48" data-name="Ellipse 48" transform="translate(1031.72 528.74)" fill="#00ccf2" stroke="#272d3b" stroke-width="5">
      <circle cx="8" cy="8" r="8" stroke="none"/>
      <circle cx="8" cy="8" r="5.5" fill="none"/>
    </g>
    <g id="Ellipse_49" data-name="Ellipse 49" transform="translate(1198.089 441.348)" fill="#00ccf2" stroke="#272d3b" stroke-width="5">
      <circle cx="8" cy="8" r="8" stroke="none"/>
      <circle cx="8" cy="8" r="5.5" fill="none"/>
    </g>
    <g id="Ellipse_50" data-name="Ellipse 50" transform="translate(1363 352)" fill="#00ccf2" stroke="#272d3b" stroke-width="5">
      <circle cx="8" cy="8" r="8" stroke="none"/>
      <circle cx="8" cy="8" r="5.5" fill="none"/>
    </g>
    <g id="Ellipse_51" data-name="Ellipse 51" transform="translate(1512.341 376.178)" fill="#00ccf2" stroke="#272d3b" stroke-width="5">
      <circle cx="8" cy="8" r="8" stroke="none"/>
      <circle cx="8" cy="8" r="5.5" fill="none"/>
    </g>
    <g id="Ellipse_52" data-name="Ellipse 52" transform="translate(1744 416.968)" fill="#00ccf2" stroke="#272d3b" stroke-width="5">
      <circle cx="8" cy="8" r="8" stroke="none"/>
      <circle cx="8" cy="8" r="5.5" fill="none"/>
    </g>
    <g id="Ellipse_53" data-name="Ellipse 53" transform="translate(1854 268)" fill="#00ccf2" stroke="#272d3b" stroke-width="5">
      <circle cx="8" cy="8" r="8" stroke="none"/>
      <circle cx="8" cy="8" r="5.5" fill="none"/>
    </g>
    <g id="X_Axis_Line" data-name="X Axis Line" transform="translate(46 651.089)">
      <line id="Line_12" data-name="Line 12" x2="1826" transform="translate(0 -0.089)" fill="none" stroke="#f5fbff" stroke-width="1"/>
    </g>
    <text id="Jan" transform="translate(46 699)" fill="#848da7" font-size="15" font-family="Poppins-Medium, Poppins" font-weight="500"><tspan x="-14.183" y="0">Jan</tspan></text>
    <text id="Feb" transform="translate(144.725 699.023)" fill="#848da7" font-size="15" font-family="Poppins-Medium, Poppins" font-weight="500"><tspan x="-13.575" y="0">Feb</tspan></text>
    <text id="Mar" transform="translate(381.877 699.023)" fill="#848da7" font-size="15" font-family="Poppins-Medium, Poppins" font-weight="500"><tspan x="-14.58" y="0">Mar</tspan></text>
    <text id="Apr" transform="translate(547.502 699.023)" fill="#848da7" font-size="15" font-family="Poppins-Medium, Poppins" font-weight="500"><tspan x="-13.193" y="0">Apr</tspan></text>
    <text id="May" transform="translate(712.658 699.023)" fill="#848da7" font-size="15" font-family="Poppins-Medium, Poppins" font-weight="500"><tspan x="-16.065" y="0">May</tspan></text>
    <text id="Jun" transform="translate(876.927 699.023)" fill="#848da7" font-size="15" font-family="Poppins-Medium, Poppins" font-weight="500"><tspan x="-13.965" y="0">Jun</tspan></text>
    <text id="Jul" transform="translate(1039.779 699.023)" fill="#848da7" font-size="15" font-family="Poppins-Medium, Poppins" font-weight="500"><tspan x="-11.077" y="0">Jul</tspan></text>
    <text id="Aug" transform="translate(1206.515 699.023)" fill="#848da7" font-size="15" font-family="Poppins-Medium, Poppins" font-weight="500"><tspan x="-15.18" y="0">Aug</tspan></text>
    <text id="Sep" transform="translate(1371.833 699.023)" fill="#848da7" font-size="15" font-family="Poppins-Medium, Poppins" font-weight="500"><tspan x="-14.242" y="0">Sep</tspan></text>
    <text id="Oct" transform="translate(1521.03 699.023)" fill="#848da7" font-size="15" font-family="Poppins-Medium, Poppins" font-weight="500"><tspan x="-13.17" y="0">Oct</tspan></text>
    <text id="Nov" transform="translate(1759 699.023)" fill="#848da7" font-size="15" font-family="Poppins-Medium, Poppins" font-weight="500"><tspan x="-14.512" y="0">Nov</tspan></text>
    <text id="Dec" transform="translate(1862 699)" fill="#848da7" font-size="15" font-family="Poppins-Medium, Poppins" font-weight="500"><tspan x="-14.445" y="0">Dec</tspan></text>
    <g id="Group_71" data-name="Group 71" transform="translate(1880.842 162)">
      <circle id="Ellipse_23" data-name="Ellipse 23" cx="3" cy="3" r="3" transform="translate(0.158)" fill="#f5fbff"/>
      <circle id="Ellipse_24" data-name="Ellipse 24" cx="3" cy="3" r="3" transform="translate(0.158 9)" fill="#f5fbff"/>
      <g id="Group_70" data-name="Group 70" transform="translate(0 18)">
        <path id="Path_121" data-name="Path 121" d="M3,0A3,3,0,1,1,0,3,3,3,0,0,1,3,0Z" fill="#f5fbff"/>
      </g>
    </g>
    <text id="Week" transform="translate(1611 191)" fill="#848da7" font-size="18" font-family="Poppins-Regular, Poppins"><tspan x="0" y="0">Week</tspan></text>
    <text id="Month" transform="translate(1695 191)" fill="#848da7" font-size="18" font-family="Poppins-Regular, Poppins"><tspan x="0" y="0">Month</tspan></text>
    <rect id="Rectangle_52" data-name="Rectangle 52" width="74" height="47" rx="5" transform="translate(1773 161)" fill="#37a28c"/>
    <g id="Rectangle_57" data-name="Rectangle 57" transform="translate(1592 161)" fill="none" stroke="gray" stroke-width="1">
      <rect width="255" height="47" rx="5" stroke="none"/>
      <rect x="0.5" y="0.5" width="254" height="46" rx="4.5" fill="none"/>
    </g>
    <text id="Year" transform="translate(1789 191)" fill="#fff" font-size="18" font-family="Poppins-Regular, Poppins"><tspan x="0" y="0">Year</tspan></text>
    <line id="Line_51" data-name="Line 51" y2="46" transform="translate(1675.5 161.5)" fill="none" stroke="gray" stroke-width="1"/>
  </g>
</svg>
