<svg xmlns="http://www.w3.org/2000/svg" width="553" height="530" viewBox="0 0 553 530">
  <g id="Cyber_Third_Map_permance" data-name="Cyber Third Map_permance" transform="translate(-1059 -1512)">
    <text id="_8_19" data-name="8/19" transform="translate(1059 2037)" fill="#fff" font-size="15" font-family="Poppins-Regular, Poppins" opacity="0.5"><tspan x="0" y="0">8/19</tspan></text>
    <text id="_9_19" data-name="9/19" transform="translate(1130 2037)" fill="#fff" font-size="15" font-family="Poppins-Regular, Poppins" opacity="0.5"><tspan x="0" y="0">9/19</tspan></text>
    <text id="_10_19" data-name="10/19" transform="translate(1202 2037)" fill="#fff" font-size="15" font-family="Poppins-Regular, Poppins" opacity="0.5"><tspan x="0" y="0">10/19</tspan></text>
    <text id="_11_19" data-name="11/19" transform="translate(1279 2037)" fill="#fff" font-size="15" font-family="Poppins-Regular, Poppins" opacity="0.5"><tspan x="0" y="0">11/19</tspan></text>
    <text id="_12_19" data-name="12/19" transform="translate(1349 2037)" fill="#fff" font-size="15" font-family="Poppins-Regular, Poppins" opacity="0.5"><tspan x="0" y="0">12/19</tspan></text>
    <text id="_1_20" data-name="1/20" transform="translate(1432 2037)" fill="#fff" font-size="15" font-family="Poppins-Regular, Poppins" opacity="0.5"><tspan x="0" y="0">1/20</tspan></text>
    <text id="_2_20" data-name="2/20" transform="translate(1504 2037)" fill="#fff" font-size="15" font-family="Poppins-Regular, Poppins" opacity="0.5"><tspan x="0" y="0">2/20</tspan></text>
    <text id="_3_20" data-name="3/20" transform="translate(1577 2037)" fill="#fff" font-size="15" font-family="Poppins-Regular, Poppins" opacity="0.5"><tspan x="0" y="0">3/20</tspan></text>
    <line id="Line_30" data-name="Line 30" y2="400" transform="translate(1069.5 1616.5)" fill="none" stroke="#fff" stroke-linecap="round" stroke-width="1" opacity="0.3"/>
    <line id="Line_30-2" data-name="Line 30" y2="400" transform="translate(1145 1616.5)" fill="none" stroke="#fff" stroke-linecap="round" stroke-width="1" opacity="0.3"/>
    <line id="Line_30-3" data-name="Line 30" y2="400" transform="translate(1221.8 1616.5)" fill="none" stroke="#fff" stroke-linecap="round" stroke-width="1" opacity="0.3"/>
    <line id="Line_30-4" data-name="Line 30" y2="400" transform="translate(1293.174 1616.5)" fill="none" stroke="#fff" stroke-linecap="round" stroke-width="1" opacity="0.3"/>
    <line id="Line_30-5" data-name="Line 30" y2="400" transform="translate(1368.548 1616.5)" fill="none" stroke="#fff" stroke-linecap="round" stroke-width="1" opacity="0.3"/>
    <line id="Line_30-6" data-name="Line 30" y2="400" transform="translate(1442.923 1616.5)" fill="none" stroke="#fff" stroke-linecap="round" stroke-width="1" opacity="0.3"/>
    <line id="Line_30-7" data-name="Line 30" y2="400" transform="translate(1518.297 1616.5)" fill="none" stroke="#fff" stroke-linecap="round" stroke-width="1" opacity="0.3"/>
    <line id="Line_30-8" data-name="Line 30" y2="400" transform="translate(1591.672 1616.5)" fill="none" stroke="#fff" stroke-linecap="round" stroke-width="1" opacity="0.3"/>
    <path id="Path_280" data-name="Path 280" d="M2616.5,3194.027l58.521-32.219,57.634,16.718,57.634,7.825,58.925-36.281,57.2,51.221,58.494-18.141,57.458,18.141,58.877-85.627,57.424,9.017" transform="translate(-1547 -1374.978)" fill="none" stroke="#37a28c" stroke-linecap="round" stroke-width="5"/>
    <g id="Group_295" data-name="Group 295" transform="translate(1240 1489)">
      <circle id="Ellipse_23" data-name="Ellipse 23" cx="3" cy="3" r="3" transform="translate(350 23)" fill="#f5fbff"/>
      <circle id="Ellipse_24" data-name="Ellipse 24" cx="3" cy="3" r="3" transform="translate(350 32)" fill="#f5fbff"/>
      <g id="Group_70" data-name="Group 70">
        <path id="Path_121" data-name="Path 121" d="M3,0A3,3,0,1,1,0,3,3,3,0,0,1,3,0Z" transform="translate(350 41)" fill="#f5fbff"/>
      </g>
    </g>
  </g>
</svg>
