<svg xmlns="http://www.w3.org/2000/svg" xmlns:xlink="http://www.w3.org/1999/xlink" width="362.688" height="270.798" viewBox="0 0 362.688 270.798">
  <defs>
    <linearGradient id="linear-gradient" x1="0.5" x2="0.5" y2="1" gradientUnits="objectBoundingBox">
      <stop offset="0" stop-color="#4791ff" stop-opacity="0.2"/>
      <stop offset="1" stop-color="#468ffd" stop-opacity="0"/>
    </linearGradient>
    <linearGradient id="linear-gradient-2" x1="0.5" x2="0.5" y2="1" gradientUnits="objectBoundingBox">
      <stop offset="0" stop-color="#02bc77" stop-opacity="0.18"/>
      <stop offset="1" stop-color="#02bc77" stop-opacity="0.051"/>
    </linearGradient>
  </defs>
  <g id="Executive_Report_4" data-name="Executive Report_4" transform="translate(-682.182 -1407.198)">
    <path id="Path_373" data-name="Path 373" d="M3195.454-22330.674s20.032-13.969,32.472-13.969,35.491,10.1,53.231,0,18.832-26.732,35.019-26.449c28.519-1.619,21.747,21.588,42.942,18.283s26.4-22.863,41.839-31.5,38.012-10.295,55.292-5.881,42.942,29.344,61.469,29.609c22.25.25,12.615-24.939,37.656-23.729" transform="translate(-2511.88 23878.842)" fill="none" stroke="#4791ff" stroke-linecap="round" stroke-width="2"/>
    <path id="Path_377" data-name="Path 377" d="M3555.374-22384.312c-25.041-1.211-15.406,23.979-37.656,23.729-18.526-.266-44.188-25.2-61.469-29.609s-39.854-2.748-55.292,5.881-20.644,28.205-41.839,31.5-14.423-19.9-42.942-18.283c-16.187-.283-17.28,16.354-35.019,26.449s-40.789,0-53.231,0-32.472,13.969-32.472,13.969v120.914a22.445,22.445,0,0,0,3.68,5.209,21.176,21.176,0,0,0,5.123,3.594h339.2s6.345-.465,9.325-3.795,2.592-9.52,2.592-9.52Z" transform="translate(-2511.88 23878.842)" opacity="0.22" fill="url(#linear-gradient)"/>
    <path id="Path_542" data-name="Path 542" d="M3556.085-22392.561s-19.212,31.156-51.3,31.156-45.2,44.313-65.506,42.785c-20.309-1.553-28.231-29.189-49.464-23.631s-24.138,25.389-39.6,39.916a52.248,52.248,0,0,1-55.39,9.9c-17.312-7.42-42.864-25.73-61.423-26.184-22.29-.42-12.792,18.322-37.876,16.285-.666,31.816,0,103.918,0,103.918a19.015,19.015,0,0,0,3.954,5.734,15.1,15.1,0,0,0,5.745,2.992h340.9s4.89-.848,7.379-3.928,2.578-8.391,2.578-8.391Z" transform="translate(-2511.956 23867.686)" opacity="0.24" fill="url(#linear-gradient-2)"/>
    <path id="Path_543" data-name="Path 543" d="M3555.374-22392.561s-19.178,31.156-51.207,31.156-45.117,44.313-65.39,42.785c-20.273-1.553-28.182-29.189-49.376-23.631s-24.095,25.389-39.53,39.916a52.085,52.085,0,0,1-55.292,9.9c-17.281-7.42-42.789-25.73-61.314-26.184-22.25-.42-12.77,18.322-37.81,16.285" transform="translate(-2511.88 23867.293)" fill="none" stroke="#02bc77" stroke-linecap="round" stroke-linejoin="round" stroke-width="2"/>
    <text id="_7_" data-name="+ 7% " transform="translate(972.822 1424.198)" fill="#02bc77" font-size="16" font-family="Poppins-Light, Poppins" font-weight="300" letter-spacing="0.02em"><tspan x="0" y="0">+ 7% </tspan></text>
  </g>
</svg>
