<svg xmlns="http://www.w3.org/2000/svg" xmlns:xlink="http://www.w3.org/1999/xlink" width="363.575" height="210.463" viewBox="0 0 363.575 210.463">
  <defs>
    <linearGradient id="linear-gradient" x1="0.5" x2="0.5" y2="1" gradientUnits="objectBoundingBox">
      <stop offset="0" stop-color="#ff2366" stop-opacity="0.271"/>
      <stop offset="1" stop-color="#ff2366" stop-opacity="0.059"/>
    </linearGradient>
  </defs>
  <g id="Executive_Report_3" data-name="Executive Report_3" transform="translate(-280.942 -1468.752)">
    <path id="Path_540" data-name="Path 540" d="M3556.616-22271.984s-12.482-27.664-24.965-27.664-9.711,27.664-24.969,27.664-18.263-7.664-36.063-27.664-14.8-54.164-35.14-52.379c-20.343,1.832-24.968,66.211-46.236,59.672s-23.351-68.742-38.838-85.855c-15.491-17.09-9.249,20.363-23.119,17.441-13.871-2.883-15.024-37.832-32.364-29.086s-20.807,54.563-36.989,64.023c-16.183,9.48-5.326-25.406-23.917-24.879-22.327.492-13.435-29.895-38.562-27.5" transform="translate(-2913.422 23860.996)" fill="none" stroke="#ff2366" stroke-linecap="round" stroke-width="2"/>
    <path id="Path_541" data-name="Path 541" d="M3556.624-22271.984s-12.482-27.664-24.965-27.664-9.711,27.664-24.969,27.664-18.263-7.664-36.063-27.664-14.8-54.164-35.14-52.379c-20.343,1.832-24.968,66.211-46.236,59.672s-23.351-68.742-38.838-85.855c-15.491-17.09-9.249,20.363-23.119,17.441-13.871-2.883-15.024-37.832-32.364-29.086s-20.807,54.563-36.989,64.023c-16.183,9.48-5.326-25.406-23.917-24.879-22.327.492-13.435-29.895-38.562-27.5-.072,30.953,0,178.414,0,178.414s-.453,7.238,3.2,11.742,11.408,6.273,11.408,6.273h331.622s7.92-1.734,11.653-5.57,3.279-9.773,3.279-9.773Z" transform="translate(-2913.43 23860.996)" fill="url(#linear-gradient)"/>
  </g>
</svg>
