<svg xmlns="http://www.w3.org/2000/svg" xmlns:xlink="http://www.w3.org/1999/xlink" width="533.034" height="452.851" viewBox="0 0 533.034 452.851">
  <defs>
    <linearGradient id="linear-gradient" x1="0.5" x2="0.5" y2="1" gradientUnits="objectBoundingBox">
      <stop offset="0" stop-color="#4791ff" stop-opacity="0.2"/>
      <stop offset="1" stop-color="#468ffd" stop-opacity="0"/>
    </linearGradient>
    <linearGradient id="linear-gradient-2" x1="0.5" x2="0.5" y2="1" gradientUnits="objectBoundingBox">
      <stop offset="0" stop-color="#02bc77" stop-opacity="0.18"/>
      <stop offset="1" stop-color="#02bc77" stop-opacity="0.051"/>
    </linearGradient>
  </defs>
  <g id="Executive_Report_2" data-name="Executive Report_2" transform="translate(-1110.019 -244.479)">
    <path id="Path_373" data-name="Path 373" d="M3195.454-22288.67s29.421-23.453,47.693-23.453,52.127,16.953,78.183,0,27.659-44.875,51.434-44.4c41.888-2.715,31.941,36.238,63.071,30.7s38.781-38.383,61.452-52.887c22.674-14.488,55.83-17.285,81.21-9.871s63.072,49.258,90.281,49.7c32.68.422,18.529-41.867,55.307-39.832" transform="translate(-2082.084 22768.246)" fill="none" stroke="#4791ff" stroke-linecap="round" stroke-width="2"/>
    <path id="Path_377" data-name="Path 377" d="M3724.059-22378.713c-36.776-2.035-22.626,40.254-55.3,39.832-27.209-.445-64.9-42.3-90.278-49.7s-58.533-4.617-81.206,9.871c-22.669,14.5-30.319,47.344-61.449,52.887s-21.183-33.41-63.069-30.7c-23.773-.477-25.379,27.453-51.431,44.4s-59.906,0-78.179,0-47.691,23.453-47.691,23.453v202.977a38.384,38.384,0,0,0,5.4,8.746,31.214,31.214,0,0,0,7.524,6.031h498.175s9.319-.777,13.694-6.367,3.807-15.984,3.807-15.984Z" transform="translate(-2082.083 22768.246)" opacity="0.22" fill="url(#linear-gradient)"/>
    <path id="Path_538" data-name="Path 538" d="M3717.638-22392.559s-27.813,51.691-74.262,51.691-65.432,73.514-94.833,70.98c-29.4-2.578-40.87-48.426-71.609-39.207-30.739,9.2-34.944,42.121-57.329,66.223-22.388,24.07-55.127,28.729-80.187,16.422s-62.054-42.687-88.922-43.437c-32.269-.7-18.519,30.393-54.833,27.016-.964,52.783,0,172.4,0,172.4s2.213,5.9,5.724,9.514a20.819,20.819,0,0,0,8.317,4.967h493.52s7.08-1.408,10.683-6.52,3.731-13.916,3.731-13.916Z" transform="matrix(1, 0.017, -0.017, 1, -2469.659, 22685.08)" opacity="0.24" fill="url(#linear-gradient-2)"/>
    <path id="Path_539" data-name="Path 539" d="M3720.3-22392.559s-27.966,52.3-74.671,52.3-65.792,74.387-95.354,71.824c-29.563-2.609-41.1-49-72-39.672-30.908,9.309-35.136,42.621-57.644,67.008-22.511,24.355-55.43,29.07-80.629,16.617s-62.4-43.2-89.411-43.953c-32.446-.707-18.62,30.754-55.135,27.336" transform="translate(-2082.084 22748.859)" fill="none" stroke="#02bc77" stroke-linecap="round" stroke-linejoin="round" stroke-width="2"/>
    <text id="_7_" data-name="+ 7% " transform="translate(1516.581 272.479)" fill="#02bc77" font-size="27" font-family="Poppins-Light, Poppins" font-weight="300" letter-spacing="0.02em"><tspan x="0" y="0">+ 7% </tspan></text>
  </g>
</svg>
