<svg xmlns="http://www.w3.org/2000/svg" width="532.786" height="180.287" viewBox="0 0 532.786 180.287">
  <g id="Executive_Report_5" data-name="Executive Report_5" transform="translate(-1095.726 -1465.308)">
    <rect id="Rectangle_201" data-name="Rectangle 201" width="2.691" height="107.634" rx="1.345" transform="translate(1398.445 1537.961)" fill="#5e5e5e"/>
    <rect id="Rectangle_236" data-name="Rectangle 236" width="2.691" height="107.634" rx="1.345" transform="translate(1292.157 1537.961)" fill="#5e5e5e"/>
    <rect id="Rectangle_243" data-name="Rectangle 243" width="2.691" height="107.634" rx="1.345" transform="translate(1187.214 1537.961)" fill="#5e5e5e"/>
    <rect id="Rectangle_206" data-name="Rectangle 206" width="2.691" height="123.779" rx="1.345" transform="translate(1352.701 1521.816)" fill="#5e5e5e"/>
    <rect id="Rectangle_230" data-name="Rectangle 230" width="2.691" height="147.996" rx="1.345" transform="translate(1247.759 1497.598)" fill="#5e5e5e"/>
    <rect id="Rectangle_237" data-name="Rectangle 237" width="2.691" height="147.996" rx="1.345" transform="translate(1141.47 1497.598)" fill="#5e5e5e"/>
    <rect id="Rectangle_202" data-name="Rectangle 202" width="2.691" height="91.489" rx="1.345" transform="translate(1383.646 1554.106)" fill="#5e5e5e"/>
    <rect id="Rectangle_231" data-name="Rectangle 231" width="2.691" height="91.489" rx="1.345" transform="translate(1277.357 1554.106)" fill="#5e5e5e"/>
    <rect id="Rectangle_238" data-name="Rectangle 238" width="2.691" height="71.307" rx="1.345" transform="translate(1171.069 1574.287)" fill="#5e5e5e"/>
    <rect id="Rectangle_205" data-name="Rectangle 205" width="2.691" height="98.216" rx="1.345" transform="translate(1337.901 1547.379)" fill="#5e5e5e"/>
    <rect id="Rectangle_232" data-name="Rectangle 232" width="2.691" height="180.286" rx="1.345" transform="translate(1231.613 1465.308)" fill="#5e5e5e"/>
    <rect id="Rectangle_239" data-name="Rectangle 239" width="2.691" height="123.779" rx="1.345" transform="translate(1126.671 1521.816)" fill="#5e5e5e"/>
    <rect id="Rectangle_208" data-name="Rectangle 208" width="2.691" height="172.214" rx="1.345" transform="translate(1308.302 1473.381)" fill="#5e5e5e"/>
    <rect id="Rectangle_233" data-name="Rectangle 233" width="2.691" height="102.252" rx="1.345" transform="translate(1202.015 1543.343)" fill="#5e5e5e"/>
    <rect id="Rectangle_240" data-name="Rectangle 240" width="2.691" height="134.542" rx="1.345" transform="translate(1095.726 1511.052)" fill="#5e5e5e"/>
    <rect id="Rectangle_203" data-name="Rectangle 203" width="2.691" height="63.235" rx="1.345" transform="translate(1368.847 1582.36)" fill="#5e5e5e"/>
    <rect id="Rectangle_234" data-name="Rectangle 234" width="2.691" height="63.235" rx="1.345" transform="translate(1262.558 1582.36)" fill="#5e5e5e"/>
    <rect id="Rectangle_241" data-name="Rectangle 241" width="2.691" height="91.489" rx="1.345" transform="translate(1156.27 1554.106)" fill="#5e5e5e"/>
    <rect id="Rectangle_204" data-name="Rectangle 204" width="2.691" height="110.325" rx="1.345" transform="translate(1323.103 1535.27)" fill="#5e5e5e"/>
    <rect id="Rectangle_235" data-name="Rectangle 235" width="2.691" height="110.325" rx="1.345" transform="translate(1216.813 1535.27)" fill="#5e5e5e"/>
    <rect id="Rectangle_242" data-name="Rectangle 242" width="2.691" height="110.325" rx="1.345" transform="translate(1110.525 1535.27)" fill="#5e5e5e"/>
    <rect id="Rectangle_201-2" data-name="Rectangle 201" width="2.691" height="65.926" rx="1.345" transform="translate(1398.445 1579.669)" fill="#02bc77"/>
    <rect id="Rectangle_236-2" data-name="Rectangle 236" width="2.691" height="65.926" rx="1.345" transform="translate(1292.157 1579.669)" fill="#02bc77"/>
    <rect id="Rectangle_243-2" data-name="Rectangle 243" width="2.691" height="73.998" rx="1.345" transform="translate(1187.214 1571.597)" fill="#02bc77"/>
    <rect id="Rectangle_206-2" data-name="Rectangle 206" width="2.691" height="75.344" rx="1.345" transform="translate(1352.701 1570.251)" fill="#02bc77"/>
    <rect id="Rectangle_230-2" data-name="Rectangle 230" width="2.691" height="102.252" rx="1.345" transform="translate(1247.759 1543.343)" fill="#02bc77"/>
    <rect id="Rectangle_237-2" data-name="Rectangle 237" width="2.691" height="102.252" rx="1.345" transform="translate(1141.47 1543.343)" fill="#02bc77"/>
    <rect id="Rectangle_202-2" data-name="Rectangle 202" width="2.691" height="55.162" rx="1.345" transform="translate(1383.646 1590.432)" fill="#02bc77"/>
    <rect id="Rectangle_231-2" data-name="Rectangle 231" width="2.691" height="55.162" rx="1.345" transform="translate(1277.357 1590.432)" fill="#02bc77"/>
    <rect id="Rectangle_238-2" data-name="Rectangle 238" width="2.691" height="49.781" rx="1.345" transform="translate(1171.069 1595.814)" fill="#02bc77"/>
    <rect id="Rectangle_205-2" data-name="Rectangle 205" width="2.691" height="60.544" rx="1.345" transform="translate(1337.901 1585.051)" fill="#02bc77"/>
    <rect id="Rectangle_232-2" data-name="Rectangle 232" width="2.691" height="122.433" rx="1.345" transform="translate(1231.613 1523.161)" fill="#02bc77"/>
    <rect id="Rectangle_239-2" data-name="Rectangle 239" width="2.691" height="84.762" rx="1.345" transform="translate(1126.671 1560.833)" fill="#02bc77"/>
    <rect id="Rectangle_208-2" data-name="Rectangle 208" width="2.691" height="104.943" rx="1.345" transform="translate(1308.302 1540.652)" fill="#02bc77"/>
    <rect id="Rectangle_233-2" data-name="Rectangle 233" width="2.691" height="69.962" rx="1.345" transform="translate(1202.015 1575.633)" fill="#02bc77"/>
    <rect id="Rectangle_240-2" data-name="Rectangle 240" width="2.691" height="91.489" rx="1.345" transform="translate(1095.726 1554.106)" fill="#02bc77"/>
    <rect id="Rectangle_203-2" data-name="Rectangle 203" width="2.691" height="37.672" rx="1.345" transform="translate(1368.847 1607.923)" fill="#02bc77"/>
    <rect id="Rectangle_234-2" data-name="Rectangle 234" width="2.691" height="37.672" rx="1.345" transform="translate(1262.558 1607.923)" fill="#02bc77"/>
    <rect id="Rectangle_241-2" data-name="Rectangle 241" width="2.691" height="63.235" rx="1.345" transform="translate(1156.27 1582.36)" fill="#02bc77"/>
    <rect id="Rectangle_204-2" data-name="Rectangle 204" width="2.691" height="67.271" rx="1.345" transform="translate(1323.103 1578.324)" fill="#02bc77"/>
    <rect id="Rectangle_235-2" data-name="Rectangle 235" width="2.691" height="75.344" rx="1.345" transform="translate(1216.813 1570.251)" fill="#02bc77"/>
    <rect id="Rectangle_242-2" data-name="Rectangle 242" width="2.691" height="75.344" rx="1.345" transform="translate(1110.525 1570.251)" fill="#02bc77"/>
    <rect id="Rectangle_246" data-name="Rectangle 246" width="2.691" height="107.634" rx="1.345" transform="translate(1609.676 1537.961)" fill="#5e5e5e"/>
    <rect id="Rectangle_247" data-name="Rectangle 247" width="2.691" height="107.634" rx="1.345" transform="translate(1504.732 1537.961)" fill="#5e5e5e"/>
    <rect id="Rectangle_249" data-name="Rectangle 249" width="2.691" height="147.996" rx="1.345" transform="translate(1565.277 1497.598)" fill="#5e5e5e"/>
    <rect id="Rectangle_250" data-name="Rectangle 250" width="2.691" height="147.996" rx="1.345" transform="translate(1458.988 1497.598)" fill="#5e5e5e"/>
    <rect id="Rectangle_252" data-name="Rectangle 252" width="2.691" height="91.489" rx="1.345" transform="translate(1594.875 1554.106)" fill="#5e5e5e"/>
    <rect id="Rectangle_253" data-name="Rectangle 253" width="2.691" height="71.307" rx="1.345" transform="translate(1488.588 1574.287)" fill="#5e5e5e"/>
    <rect id="Rectangle_255" data-name="Rectangle 255" width="2.691" height="180.286" rx="1.345" transform="translate(1549.131 1465.308)" fill="#5e5e5e"/>
    <rect id="Rectangle_256" data-name="Rectangle 256" width="2.691" height="123.779" rx="1.345" transform="translate(1444.189 1521.816)" fill="#5e5e5e"/>
    <rect id="Rectangle_257" data-name="Rectangle 257" width="2.691" height="172.214" rx="1.345" transform="translate(1625.82 1473.381)" fill="#5e5e5e"/>
    <rect id="Rectangle_258" data-name="Rectangle 258" width="2.691" height="102.252" rx="1.345" transform="translate(1519.533 1543.343)" fill="#5e5e5e"/>
    <rect id="Rectangle_259" data-name="Rectangle 259" width="2.691" height="134.542" rx="1.345" transform="translate(1413.244 1511.052)" fill="#5e5e5e"/>
    <rect id="Rectangle_261" data-name="Rectangle 261" width="2.691" height="63.235" rx="1.345" transform="translate(1580.076 1582.36)" fill="#5e5e5e"/>
    <rect id="Rectangle_262" data-name="Rectangle 262" width="2.691" height="91.489" rx="1.345" transform="translate(1473.787 1554.106)" fill="#5e5e5e"/>
    <rect id="Rectangle_264" data-name="Rectangle 264" width="2.691" height="110.325" rx="1.345" transform="translate(1534.332 1535.27)" fill="#5e5e5e"/>
    <rect id="Rectangle_265" data-name="Rectangle 265" width="2.691" height="110.325" rx="1.345" transform="translate(1428.043 1535.27)" fill="#5e5e5e"/>
    <rect id="Rectangle_267" data-name="Rectangle 267" width="2.691" height="65.926" rx="1.345" transform="translate(1609.676 1579.669)" fill="#02bc77"/>
    <rect id="Rectangle_268" data-name="Rectangle 268" width="2.691" height="73.998" rx="1.345" transform="translate(1504.732 1571.597)" fill="#02bc77"/>
    <rect id="Rectangle_270" data-name="Rectangle 270" width="2.691" height="102.252" rx="1.345" transform="translate(1565.277 1543.343)" fill="#02bc77"/>
    <rect id="Rectangle_271" data-name="Rectangle 271" width="2.691" height="102.252" rx="1.345" transform="translate(1458.988 1543.343)" fill="#02bc77"/>
    <rect id="Rectangle_273" data-name="Rectangle 273" width="2.691" height="55.162" rx="1.345" transform="translate(1594.875 1590.432)" fill="#02bc77"/>
    <rect id="Rectangle_274" data-name="Rectangle 274" width="2.691" height="49.781" rx="1.345" transform="translate(1488.588 1595.814)" fill="#02bc77"/>
    <rect id="Rectangle_276" data-name="Rectangle 276" width="2.691" height="122.433" rx="1.345" transform="translate(1549.131 1523.161)" fill="#02bc77"/>
    <rect id="Rectangle_277" data-name="Rectangle 277" width="2.691" height="84.762" rx="1.345" transform="translate(1444.189 1560.833)" fill="#02bc77"/>
    <rect id="Rectangle_278" data-name="Rectangle 278" width="2.691" height="104.943" rx="1.345" transform="translate(1625.82 1540.652)" fill="#02bc77"/>
    <rect id="Rectangle_279" data-name="Rectangle 279" width="2.691" height="69.962" rx="1.345" transform="translate(1519.533 1575.633)" fill="#02bc77"/>
    <rect id="Rectangle_280" data-name="Rectangle 280" width="2.691" height="91.489" rx="1.345" transform="translate(1413.244 1554.106)" fill="#02bc77"/>
    <rect id="Rectangle_282" data-name="Rectangle 282" width="2.691" height="37.672" rx="1.345" transform="translate(1580.076 1607.923)" fill="#02bc77"/>
    <rect id="Rectangle_283" data-name="Rectangle 283" width="2.691" height="63.235" rx="1.345" transform="translate(1473.787 1582.36)" fill="#02bc77"/>
    <rect id="Rectangle_285" data-name="Rectangle 285" width="2.691" height="75.344" rx="1.345" transform="translate(1534.332 1570.251)" fill="#02bc77"/>
    <rect id="Rectangle_286" data-name="Rectangle 286" width="2.691" height="75.344" rx="1.345" transform="translate(1428.043 1570.251)" fill="#02bc77"/>
  </g>
</svg>
