<svg xmlns="http://www.w3.org/2000/svg" width="1185.512" height="432.808" viewBox="0 0 1185.512 432.808">
  <g id="icmp_traffic_8" data-name="icmp traffic_8" transform="translate(-362 -1013.8)">
    <path id="Icon_payment-mastercard-alt" data-name="Icon payment-mastercard-alt" d="M57.206,31.95a15.6,15.6,0,0,0-2.063-7.864,17.915,17.915,0,0,0-5.673-5.673,16.562,16.562,0,0,0-7.864-2.063,14.879,14.879,0,0,0-9.412,3.223,15.678,15.678,0,0,1,4.9,8.123H35.675a14.85,14.85,0,0,0-4.512-7.349A14.834,14.834,0,0,0,26.651,27.7H25.233a15.666,15.666,0,0,1,4.9-8.123A14.889,14.889,0,0,0,20.72,16.35a16.552,16.552,0,0,0-7.864,2.063,17.889,17.889,0,0,0-5.673,5.673,16.021,16.021,0,0,0,0,15.728,17.871,17.871,0,0,0,5.673,5.673,16.533,16.533,0,0,0,7.864,2.063,14.879,14.879,0,0,0,9.412-3.223,16.249,16.249,0,0,1-4.77-7.477h1.418a15.69,15.69,0,0,0,4.384,6.7,15.712,15.712,0,0,0,4.384-6.7h1.418a16.288,16.288,0,0,1-4.77,7.477,14.868,14.868,0,0,0,9.412,3.223,16.538,16.538,0,0,0,7.864-2.063,17.9,17.9,0,0,0,5.673-5.673,15.6,15.6,0,0,0,2.063-7.864ZM11.953,28.211H14.4l-1.289,7.477H11.567l.9-5.673-2.063,5.673H9.246V30.015L8.214,35.688H6.668l1.289-7.477h2.321v4.641Zm7.22,3.094a6.114,6.114,0,0,1-.129,1.161c-.086.6-.174,1.161-.258,1.676a8.633,8.633,0,0,1-.258,1.161v.387H17.239v-.645a1.867,1.867,0,0,1-1.676.774,1.391,1.391,0,0,1-1.031-.387,2.087,2.087,0,0,1-.387-1.289,2.016,2.016,0,0,1,.645-1.676,3.669,3.669,0,0,1,2.191-.645h.645v-.388c0-.343-.344-.515-1.031-.515a7.242,7.242,0,0,0-1.676.258c.084-.343.172-.774.258-1.289a5.255,5.255,0,0,1,1.805-.387q2.192,0,2.192,1.805Zm-1.8,1.676h-.387c-.86,0-1.289.3-1.289.9,0,.431.172.645.515.645a.873.873,0,0,0,.774-.387A1.576,1.576,0,0,0,17.369,32.981Zm6.317-3.352-.258,1.418a3.969,3.969,0,0,0-1.161-.129c-.516,0-.774.173-.774.515a.518.518,0,0,0,.129.387l.515.258A1.908,1.908,0,0,1,23.3,33.754q0,2.064-2.45,2.063a7.616,7.616,0,0,1-1.676-.129c.084-.343.172-.816.258-1.418a6.986,6.986,0,0,0,1.418.258c.6,0,.9-.172.9-.515a.535.535,0,0,0-.129-.387,1.647,1.647,0,0,0-.645-.387,1.736,1.736,0,0,1-1.161-1.676q0-2.06,2.321-2.063a6.006,6.006,0,0,1,1.548.13Zm2.449,0h.774l-.129,1.547h-.9a4.867,4.867,0,0,1-.129,1.161,4.029,4.029,0,0,1-.064.515,1.016,1.016,0,0,1-.193.515v.515a.455.455,0,0,0,.515.515,1.14,1.14,0,0,0,.515-.129l-.258,1.418a3.9,3.9,0,0,1-1.161.129,1.139,1.139,0,0,1-1.289-1.289,6.046,6.046,0,0,1,.258-1.676l.645-4.126h1.547l-.128.9Zm5.8,2.063a8.132,8.132,0,0,1-.129,1.547H28.585a1.244,1.244,0,0,0,.258.9A1.576,1.576,0,0,0,30,34.528a3.416,3.416,0,0,0,1.676-.515l-.258,1.547a4.555,4.555,0,0,1-1.676.258,2.393,2.393,0,0,1-2.708-2.708,3.852,3.852,0,0,1,.774-2.578A2.335,2.335,0,0,1,29.745,29.5a2.273,2.273,0,0,1,1.676.645,2.115,2.115,0,0,1,.515,1.547Zm-3.224.258h1.805v-.387l-.129-.258a.382.382,0,0,0-.129-.258A.364.364,0,0,1,30,30.918h-.258q-.773,0-1.031,1.031Zm7.22-2.321a9.606,9.606,0,0,0-.645,1.805c-.344-.084-.645.129-.9.645a25.382,25.382,0,0,0-.645,3.61H32.066L32.2,35.3q.513-3.607.774-5.673h1.547l-.129.9a1.648,1.648,0,0,1,.774-.774.561.561,0,0,1,.773-.129Zm5.414-1.161-.258,1.547a3.212,3.212,0,0,0-1.418-.387,1.729,1.729,0,0,0-1.547.774,3.3,3.3,0,0,0-.515,2.063A1.778,1.778,0,0,0,38,33.754a1.22,1.22,0,0,0,1.031.515,3.214,3.214,0,0,0,1.418-.387l-.258,1.676a3.2,3.2,0,0,1-1.418.258,2.579,2.579,0,0,1-2.063-.9,3.153,3.153,0,0,1-.774-2.321,4.985,4.985,0,0,1,1.031-3.223,2.959,2.959,0,0,1,2.578-1.289,6.208,6.208,0,0,1,1.8.387Zm4.641,2.837a4.048,4.048,0,0,1-.064.515,3.834,3.834,0,0,0-.064.645c-.086.431-.174,1.011-.258,1.74a9.107,9.107,0,0,1-.258,1.483H44.056v-.645a1.867,1.867,0,0,1-1.676.774,1.391,1.391,0,0,1-1.031-.387,2.087,2.087,0,0,1-.387-1.289,2.016,2.016,0,0,1,.645-1.676,3.459,3.459,0,0,1,2.063-.645h.645a.53.53,0,0,0,.129-.387c0-.343-.344-.515-1.031-.515a7.242,7.242,0,0,0-1.676.258,4.178,4.178,0,0,1,.258-1.289A5.254,5.254,0,0,1,43.8,29.5q2.19,0,2.191,1.805Zm-1.8,1.676H43.8c-.86,0-1.289.3-1.289.9,0,.431.172.645.515.645a.873.873,0,0,0,.774-.387A1.576,1.576,0,0,0,44.185,32.981Zm5.8-3.352a3.434,3.434,0,0,0-.645,1.805c-.344-.084-.645.129-.9.645a25.98,25.98,0,0,0-.645,3.61H46.118l.129-.387q.51-2.818.774-5.673h1.547a2.9,2.9,0,0,1-.129.9,1.648,1.648,0,0,1,.774-.774.922.922,0,0,1,.773-.129Zm4-1.418h1.676L54.37,35.689H52.823l.129-.515a1.717,1.717,0,0,1-1.418.645,1.51,1.51,0,0,1-1.418-.645,3.075,3.075,0,0,1-.645-1.805,3.966,3.966,0,0,1,.9-2.708,2.021,2.021,0,0,1,1.805-1.031,2.227,2.227,0,0,1,1.547.774l.258-2.192Zm-.645,4c0-.774-.3-1.161-.9-1.161a1.087,1.087,0,0,0-.9.645,2.726,2.726,0,0,0-.258,1.418q0,1.161.774,1.161a1.117,1.117,0,0,0,.9-.515,2.561,2.561,0,0,0,.386-1.547Z" transform="translate(1481.836 997.451)" fill="#f5fbff"/>
    <text id="_8_19" data-name="8/19" transform="translate(362 1443.609)" fill="#fff" font-size="10" font-family="Montserrat-Regular, Montserrat" opacity="0.5"><tspan x="0" y="0">8/19</tspan></text>
    <text id="_9_19" data-name="9/19" transform="translate(474 1443.609)" fill="#fff" font-size="10" font-family="Montserrat-Regular, Montserrat" opacity="0.5"><tspan x="0" y="0">9/19</tspan></text>
    <text id="_10_19" data-name="10/19" transform="translate(629 1443.609)" fill="#fff" font-size="10" font-family="Montserrat-Regular, Montserrat" opacity="0.5"><tspan x="0" y="0">10/19</tspan></text>
    <text id="_11_19" data-name="11/19" transform="translate(757 1443.609)" fill="#fff" font-size="10" font-family="Montserrat-Regular, Montserrat" opacity="0.5"><tspan x="0" y="0">11/19</tspan></text>
    <text id="_12_19" data-name="12/19" transform="translate(881 1443.609)" fill="#fff" font-size="10" font-family="Montserrat-Regular, Montserrat" opacity="0.5"><tspan x="0" y="0">12/19</tspan></text>
    <text id="_1_20" data-name="1/20" transform="translate(1009 1443.609)" fill="#fff" font-size="10" font-family="Montserrat-Regular, Montserrat" opacity="0.5"><tspan x="0" y="0">1/20</tspan></text>
    <text id="_2_20" data-name="2/20" transform="translate(1135 1443.609)" fill="#fff" font-size="10" font-family="Montserrat-Regular, Montserrat" opacity="0.5"><tspan x="0" y="0">2/20</tspan></text>
    <text id="_3_20" data-name="3/20" transform="translate(1260 1443.609)" fill="#fff" font-size="10" font-family="Montserrat-Regular, Montserrat" opacity="0.5"><tspan x="0" y="0">3/20</tspan></text>
    <text id="_4_20" data-name="4/20" transform="translate(1385 1443.609)" fill="#fff" font-size="10" font-family="Montserrat-Regular, Montserrat" opacity="0.5"><tspan x="0" y="0">4/20</tspan></text>
    <text id="_5_20" data-name="5/20" transform="translate(1525.512 1443.609)" fill="#fff" font-size="10" font-family="Montserrat-Regular, Montserrat" opacity="0.5"><tspan x="0" y="0">5/20</tspan></text>
    <line id="Line_30" data-name="Line 30" y2="160" transform="translate(372.5 1263.109)" fill="none" stroke="#fff" stroke-linecap="round" stroke-width="1" opacity="0.3"/>
    <line id="Line_30-2" data-name="Line 30" y2="160" transform="translate(482.5 1263.109)" fill="none" stroke="#fff" stroke-linecap="round" stroke-width="1" opacity="0.3"/>
    <line id="Line_30-3" data-name="Line 30" y2="160" transform="translate(640.867 1263.109)" fill="none" stroke="#fff" stroke-linecap="round" stroke-width="1" opacity="0.3"/>
    <line id="Line_30-4" data-name="Line 30" y2="160" transform="translate(766.555 1263.109)" fill="none" stroke="#fff" stroke-linecap="round" stroke-width="1" opacity="0.3"/>
    <line id="Line_30-5" data-name="Line 30" y2="160" transform="translate(892.242 1263.109)" fill="none" stroke="#fff" stroke-linecap="round" stroke-width="1" opacity="0.3"/>
    <line id="Line_30-6" data-name="Line 30" y2="160" transform="translate(1017.93 1263.109)" fill="none" stroke="#fff" stroke-linecap="round" stroke-width="1" opacity="0.3"/>
    <line id="Line_30-7" data-name="Line 30" y2="160" transform="translate(1143.617 1263.109)" fill="none" stroke="#fff" stroke-linecap="round" stroke-width="1" opacity="0.3"/>
    <line id="Line_30-8" data-name="Line 30" y2="160" transform="translate(1269.303 1263.109)" fill="none" stroke="#fff" stroke-linecap="round" stroke-width="1" opacity="0.3"/>
    <line id="Line_30-9" data-name="Line 30" y2="160" transform="translate(1394.99 1263.109)" fill="none" stroke="#fff" stroke-linecap="round" stroke-width="1" opacity="0.3"/>
    <line id="Line_30-10" data-name="Line 30" y2="160" transform="translate(1536.012 1263.109)" fill="none" stroke="#fff" stroke-linecap="round" stroke-width="1" opacity="0.3"/>
    <path id="Path_280" data-name="Path 280" d="M2616.5,3194.027l130.379-32.219,128.4,16.718,128.4,7.825,131.278-36.281,127.446,51.221,130.319-18.141,128.012,18.141,131.172-85.627,127.935,9.017" transform="translate(-2244 -1971.563)" fill="none" stroke="#00ccf2" stroke-linecap="round" stroke-width="5"/>
  </g>
</svg>
