<svg xmlns="http://www.w3.org/2000/svg" width="1784.473" height="450.822" viewBox="0 0 1784.473 450.822">
  <g id="Group_3203" data-name="Group 3203" transform="translate(-57.881 -230.178)">
    <g id="m1" transform="translate(63.758 236.247)">
      <path id="Path_123" data-name="Path 123" d="M0,356.429c52.972-59.687,105.944-119.374,158.916-143.041s105.944-11.312,158.916,28.139,105.944,106,158.916,114.9,105.944-39.835,158.916-103.177S741.607,111.967,794.579,126.626,900.523,248.547,953.495,270.839s105.944-40.384,158.916-86.762,105.944-76.457,158.916-86.762,105.944-.835,158.916,29.312,105.944,80.971,158.916,63.313S1695.1,86.141,1748.074,0" transform="translate(12.115 11.026)" fill="rgba(0,0,0,0)" stroke="#00ccf2" stroke-width="8"/>
      <path id="Path_126" data-name="Path 126" d="M0,356.429c52.972-59.687,105.944-119.374,158.916-143.041,23.255-10.389,46.509-13.837,70.021-11.067,29.46,3.47,59.177,17.074,88.894,39.206,52.972,39.451,105.944,106,158.916,114.9s105.944-39.835,158.916-103.177S741.607,111.967,794.579,126.626,900.523,248.547,953.495,270.839s105.944-40.384,158.916-86.762,105.944-76.457,158.916-86.762,105.944-.835,158.916,29.312,105.944,80.971,158.916,63.313S1695.1,86.141,1748.074,0" transform="translate(12.115 11.026)" fill="none" stroke="#00ccf2" stroke-width="5"/>
      <g id="Marks" transform="translate(0.243 -0.247)">
        <g id="Ellipse_42" data-name="Ellipse 42" transform="translate(-0.001 357)" fill="#00ccf2" stroke="#272d3b" stroke-width="5">
          <circle cx="11.5" cy="11.5" r="11.5" stroke="none"/>
          <circle cx="11.5" cy="11.5" r="9" fill="none"/>
        </g>
        <g id="Ellipse_43" data-name="Ellipse 43" transform="translate(142.811 208.662)" fill="#00ccf2" stroke="#272d3b" stroke-width="5">
          <circle cx="11.592" cy="11.592" r="11.592" stroke="none"/>
          <circle cx="11.592" cy="11.592" r="9.092" fill="none"/>
        </g>
        <g id="Group_March" data-name="Group March" transform="translate(297.831 119.067)">
          <g id="Ellipse_44" data-name="Ellipse 44" transform="translate(29.616 130.756)" fill="#00ccf2" stroke="#272d3b" stroke-width="5">
            <circle cx="11.592" cy="11.592" r="11.592" stroke="none"/>
            <circle cx="11.592" cy="11.592" r="9.092" fill="none"/>
          </g>
          <g id="Group_March-2" data-name="Group March" opacity="0">
            <g id="Group_80" data-name="Group 80">
              <path id="Union_1" data-name="Union 1" d="M41.822,100.483l-9.31-13.542H10a10,10,0,0,1-10-10V10A10,10,0,0,1,10,0H76.941a10,10,0,0,1,10,10V76.941a10,10,0,0,1-10,10H54.429l-9.31,13.542a2,2,0,0,1-3.3,0Z" fill="#f5fbff"/>
            </g>
            <text id="_33_" data-name="33%" transform="translate(23.168 37.933)" fill="#272d3b" font-size="23" font-family="Montserrat-Bold, Montserrat" font-weight="700"><tspan x="0" y="0">33%</tspan></text>
            <text id="March" transform="translate(11.168 69.933)" fill="#272d3b" font-size="20" font-family="Montserrat-Regular, Montserrat"><tspan x="0" y="0">March</tspan></text>
          </g>
        </g>
        <g id="Ellipse_45" data-name="Ellipse 45" transform="translate(477.118 355.862)" fill="#00ccf2" stroke="#272d3b" stroke-width="5">
          <circle cx="11.592" cy="11.592" r="11.592" stroke="none"/>
          <circle cx="11.592" cy="11.592" r="9.092" fill="none"/>
        </g>
        <g id="Ellipse_46" data-name="Ellipse 46" transform="translate(636.055 252.845)" fill="#00ccf2" stroke="#272d3b" stroke-width="5">
          <circle cx="11.592" cy="11.592" r="11.592" stroke="none"/>
          <circle cx="11.592" cy="11.592" r="9.092" fill="none"/>
        </g>
        <g id="Ellipse_47" data-name="Ellipse 47" transform="translate(794.999 126)" fill="#00ccf2" stroke="#272d3b" stroke-width="5">
          <circle cx="11.5" cy="11.5" r="11.5" stroke="none"/>
          <circle cx="11.5" cy="11.5" r="9" fill="none"/>
        </g>
        <g id="Ellipse_48" data-name="Ellipse 48" transform="translate(953.929 270.42)" fill="#00ccf2" stroke="#272d3b" stroke-width="5">
          <circle cx="11.592" cy="11.592" r="11.592" stroke="none"/>
          <circle cx="11.592" cy="11.592" r="9.092" fill="none"/>
        </g>
        <g id="Ellipse_49" data-name="Ellipse 49" transform="translate(1112.865 183.718)" fill="#00ccf2" stroke="#272d3b" stroke-width="5">
          <circle cx="11.592" cy="11.592" r="11.592" stroke="none"/>
          <circle cx="11.592" cy="11.592" r="9.092" fill="none"/>
        </g>
        <g id="Ellipse_50" data-name="Ellipse 50" transform="translate(1272.999 96)" fill="#00ccf2" stroke="#272d3b" stroke-width="5">
          <circle cx="11.5" cy="11.5" r="11.5" stroke="none"/>
          <circle cx="11.5" cy="11.5" r="9" fill="none"/>
        </g>
        <g id="Ellipse_51" data-name="Ellipse 51" transform="translate(1417.149 119.063)" fill="#00ccf2" stroke="#272d3b" stroke-width="5">
          <circle cx="11.592" cy="11.592" r="11.592" stroke="none"/>
          <circle cx="11.592" cy="11.592" r="9.092" fill="none"/>
        </g>
        <g id="Ellipse_52" data-name="Ellipse 52" transform="translate(1605.823 192.475)" fill="#00ccf2" stroke="#272d3b" stroke-width="5">
          <circle cx="11.592" cy="11.592" r="11.592" stroke="none"/>
          <circle cx="11.592" cy="11.592" r="9.092" fill="none"/>
        </g>
        <g id="Ellipse_53" data-name="Ellipse 53" transform="translate(1746.999)" fill="#00ccf2" stroke="#272d3b" stroke-width="5">
          <circle cx="11.5" cy="11.5" r="11.5" stroke="none"/>
          <circle cx="11.5" cy="11.5" r="9" fill="none"/>
        </g>
      </g>
    </g>
    <line id="Line_12" data-name="Line 12" x2="1755.5" transform="translate(75 636)" fill="none" stroke="#f5fbff" stroke-width="1"/>
    <text id="Jan" transform="translate(85 674)" fill="#fff" font-size="20" font-family="Poppins-Medium, Poppins" font-weight="500"><tspan x="-18.91" y="0">Jan</tspan></text>
    <text id="Feb" transform="translate(211 674)" fill="#fff" font-size="20" font-family="Poppins-Medium, Poppins" font-weight="500"><tspan x="-18.1" y="0">Feb</tspan></text>
    <text id="Mar" transform="translate(395 674)" fill="#fff" font-size="20" font-family="Poppins-Medium, Poppins" font-weight="500"><tspan x="-19.44" y="0">Mar</tspan></text>
    <text id="Apr" transform="translate(551 674)" fill="#fff" font-size="20" font-family="Poppins-Medium, Poppins" font-weight="500"><tspan x="-17.59" y="0">Apr</tspan></text>
    <text id="May" transform="translate(713 674)" fill="#fff" font-size="20" font-family="Poppins-Medium, Poppins" font-weight="500"><tspan x="-21.42" y="0">May</tspan></text>
    <text id="Jun" transform="translate(868 674)" fill="#fff" font-size="20" font-family="Poppins-Medium, Poppins" font-weight="500"><tspan x="-18.62" y="0">Jun</tspan></text>
    <text id="Jul" transform="translate(1027 674)" fill="#fff" font-size="20" font-family="Poppins-Medium, Poppins" font-weight="500"><tspan x="-14.77" y="0">Jul</tspan></text>
    <text id="Aug" transform="translate(1197 674)" fill="#fff" font-size="20" font-family="Poppins-Medium, Poppins" font-weight="500"><tspan x="-20.24" y="0">Aug</tspan></text>
    <text id="Sep" transform="translate(1343 674)" fill="#fff" font-size="20" font-family="Poppins-Medium, Poppins" font-weight="500"><tspan x="-18.99" y="0">Sep</tspan></text>
    <text id="Oct" transform="translate(1495 674)" fill="#fff" font-size="20" font-family="Poppins-Medium, Poppins" font-weight="500"><tspan x="-17.56" y="0">Oct</tspan></text>
    <text id="Nov" transform="translate(1695 674)" fill="#fff" font-size="20" font-family="Poppins-Medium, Poppins" font-weight="500"><tspan x="-19.35" y="0">Nov</tspan></text>
    <text id="Dec" transform="translate(1815 674)" fill="#fff" font-size="20" font-family="Poppins-Medium, Poppins" font-weight="500"><tspan x="-19.26" y="0">Dec</tspan></text>
  </g>
</svg>
