<svg xmlns="http://www.w3.org/2000/svg" xmlns:xlink="http://www.w3.org/1999/xlink" width="1897.805" height="639" viewBox="0 0 1897.805 639">
  <defs>
    <linearGradient id="linear-gradient" x1="0.5" x2="0.5" y2="1" gradientUnits="objectBoundingBox">
      <stop offset="0" stop-color="#54d8ff"/>
      <stop offset="1" stop-color="#fff" stop-opacity="0"/>
    </linearGradient>
    <linearGradient id="linear-gradient-2" x1="0.5" x2="0.5" y2="1" gradientUnits="objectBoundingBox">
      <stop offset="0" stop-color="#37a28c"/>
      <stop offset="1" stop-color="#fff" stop-opacity="0"/>
    </linearGradient>
  </defs>
  <g id="Group_3198" data-name="Group 3198" transform="translate(-7 -188)">
    <path id="Chart_Grid" data-name="Chart Grid" d="M0,412V0H1.688V410.44H378.129V316.8H2.191v-1.56H378.129V221.605H2.191v-1.56H378.129V126.409H2.191v-1.56H378.129V31.212H2.191v-1.56H378.129V0h1.688V29.651H736V0h1.688V29.651h359.559V0h1.688V29.651h354.5V0h1.688V29.651h382.691v1.56H1455.12v93.637h382.691v1.56H1455.12v93.636h382.691v1.56H1455.12v93.637h382.691v1.56H1455.12V410.44h383.192V0H1840V412Zm1453.432-1.56V316.8h-354.5V410.44Zm-356.184,0V316.8H737.689V410.44ZM736,410.44V316.8H379.817V410.44Zm717.431-95.2V221.605h-354.5v93.637Zm-356.184,0V221.605H737.689v93.637Zm-361.247,0V221.605H379.817v93.637Zm717.431-95.2V126.409h-354.5v93.636Zm-356.184,0V126.409H737.689v93.636Zm-361.247,0V126.409H379.817v93.636Zm717.431-95.2V31.212h-354.5v93.637Zm-356.184,0V31.212H737.689v93.637Zm-361.247,0V31.212H379.817v93.637Z" transform="translate(60 307)" fill="#eaf0f4"/>
    <g id="Total_Views_Graph" data-name="Total Views Graph" transform="translate(55 582.666)">
      <path id="Filled.Graph" d="M330,490.153V354.422S537.083,489.367,707.193,494.445c189.8-1.144,191.356-70.055,358.142-107.78,139.628-29.621,246.171,51.18,362.964,53.151s197.4-55.378,356.738-59.362c206.446,6,372.1,82.62,384.957,86.74V523.21L330,523.309Z" transform="translate(-324.995 -350)" opacity="0.7" fill="url(#linear-gradient)"/>
      <path id="Line.Graph" d="M312.953,279.164S526.558,416.6,693.5,417.881s224.028-80.975,358.069-108.707,250.321,52.9,362.232,53.91,219.059-60.576,356.564-58.9,294.717,48.262,381.63,85.012" transform="translate(-306.994 -274)" fill="none" stroke="#54d8ff" stroke-width="2"/>
      <g id="Jun.Ellipse" transform="translate(1839.816 111)" fill="#fff" stroke="#55d8fe" stroke-width="2">
        <circle cx="4.995" cy="4.995" r="4.995" stroke="none"/>
        <circle cx="4.995" cy="4.995" r="3.995" fill="none"/>
      </g>
      <g id="May.Ellipse" transform="translate(1454.62 25)" fill="#fff" stroke="#55d8fe" stroke-width="2">
        <circle cx="4.995" cy="4.995" r="4.995" stroke="none"/>
        <circle cx="4.995" cy="4.995" r="3.995" fill="none"/>
      </g>
      <g id="Apr.Ellipse" transform="translate(1098.146 84)" fill="#fff" stroke="#55d8fe" stroke-width="2">
        <circle cx="4.995" cy="4.995" r="4.995" stroke="none"/>
        <circle cx="4.995" cy="4.995" r="3.995" fill="none"/>
      </g>
      <g id="Mar.Ellipse" transform="translate(738.291 30)" fill="#fff" stroke="#55d8fe" stroke-width="2">
        <circle cx="4.995" cy="4.995" r="4.995" stroke="none"/>
        <circle cx="4.995" cy="4.995" r="3.995" fill="none"/>
      </g>
      <g id="Feb.Ellipse" transform="translate(378.44 139)" fill="#fff" stroke="#55d8fe" stroke-width="2">
        <circle cx="4.995" cy="4.995" r="4.995" stroke="none"/>
        <circle cx="4.995" cy="4.995" r="3.995" fill="none"/>
      </g>
      <g id="Jan.Ellipse" fill="#fff" stroke="#55d8fe" stroke-width="2">
        <circle cx="4.995" cy="4.995" r="4.995" stroke="none"/>
        <circle cx="4.995" cy="4.995" r="3.995" fill="none"/>
      </g>
    </g>
    <path id="Filled.Graph-2" data-name="Filled.Graph" d="M330,490.153V401.268s212.171,58.3,381.7,61.963c183.31-3.549,215.052-28.5,357.837-61.963,122.016-27.892,243.7-35.547,360.491-33.576s218.023,32.1,355.982,35.189c243.377-12.44,367.549-75.335,383.992-101.6V523.21l-1840,.1Z" transform="translate(-269.998 209.827)" opacity="0.7" fill="url(#linear-gradient-2)"/>
    <path id="Line.Graph-2" data-name="Line.Graph" d="M313,346.5s210.88,59.691,377.616,60.976,230.78-30.8,358.49-60.9S1298.223,311.35,1410,312.361s220.435,32.548,357.772,34.221S2127.291,292.07,2152,245.24" transform="translate(-251.998 264.827)" fill="none" stroke="#a3a0fb" stroke-width="2"/>
    <g id="Jun.Ellipse-2" data-name="Jun.Ellipse" transform="translate(1894.273 505.827)" fill="#fff" stroke="#a4a1fb" stroke-width="2">
      <circle cx="4.995" cy="4.995" r="4.995" stroke="none"/>
      <circle cx="4.995" cy="4.995" r="3.995" fill="none"/>
    </g>
    <g id="May.Ellipse-2" data-name="May.Ellipse" transform="translate(1509.191 606.827)" fill="#fff" stroke="#a4a1fb" stroke-width="2">
      <circle cx="4.995" cy="4.995" r="4.995" stroke="none"/>
      <circle cx="4.995" cy="4.995" r="3.995" fill="none"/>
    </g>
    <g id="Apr.Ellipse-2" data-name="Apr.Ellipse" transform="translate(1152.822 572.827)" fill="#fff" stroke="#a4a1fb" stroke-width="2">
      <circle cx="4.995" cy="4.995" r="4.995" stroke="none"/>
      <circle cx="4.995" cy="4.995" r="3.995" fill="none"/>
    </g>
    <g id="Mar.Ellipse-2" data-name="Mar.Ellipse" transform="translate(793.074 606.827)" fill="#fff" stroke="#a4a1fb" stroke-width="2">
      <circle cx="4.995" cy="4.995" r="4.995" stroke="none"/>
      <circle cx="4.995" cy="4.995" r="3.995" fill="none"/>
    </g>
    <g id="Feb.Ellipse-2" data-name="Feb.Ellipse" transform="translate(435.016 667.827)" fill="#fff" stroke="#a4a1fb" stroke-width="2">
      <circle cx="4.995" cy="4.995" r="4.995" stroke="none"/>
      <circle cx="4.995" cy="4.995" r="3.995" fill="none"/>
    </g>
    <g id="Jan.Ellipse-2" data-name="Jan.Ellipse" transform="translate(55 605.827)" fill="#fff" stroke="#a4a1fb" stroke-width="2">
      <circle cx="4.995" cy="4.995" r="4.995" stroke="none"/>
      <circle cx="4.995" cy="4.995" r="3.995" fill="none"/>
    </g>
    <text id="Jan" transform="translate(60 818)" fill="#dfdfdf" font-size="25" font-family="Poppins-Regular, Poppins" opacity="0.5"><tspan x="0" y="0">Jan</tspan></text>
    <text id="Feb" transform="translate(427 818)" fill="#dfdfdf" font-size="25" font-family="Poppins-Regular, Poppins" opacity="0.5"><tspan x="0" y="0">Feb</tspan></text>
    <text id="Mar" transform="translate(786 818)" fill="#dfdfdf" font-size="25" font-family="Poppins-Regular, Poppins" opacity="0.5"><tspan x="0" y="0">Mar</tspan></text>
    <text id="Apr" transform="translate(1151 818)" fill="#dfdfdf" font-size="25" font-family="Poppins-Regular, Poppins" opacity="0.5"><tspan x="0" y="0">Apr</tspan></text>
    <text id="May" transform="translate(1512 818)" fill="#dfdfdf" font-size="25" font-family="Poppins-Regular, Poppins" opacity="0.5"><tspan x="0" y="0">May</tspan></text>
    <text id="Jun" transform="translate(1855 818)" fill="#dfdfdf" font-size="25" font-family="Poppins-Regular, Poppins" opacity="0.5"><tspan x="0" y="0">Jun</tspan></text>
    <text id="_5k" data-name="$5k" transform="translate(7 725)" fill="#d5d5dc" font-size="18" font-family="Poppins-Regular, Poppins" opacity="0.5"><tspan x="0" y="0">$5k</tspan></text>
    <text id="_10k" data-name="$10k" transform="translate(7 627)" fill="#d5d5dc" font-size="18" font-family="Poppins-Regular, Poppins" opacity="0.5"><tspan x="0" y="0">$10k</tspan></text>
    <text id="_15k" data-name="$15k" transform="translate(7 531)" fill="#d5d5dc" font-size="18" font-family="Poppins-Regular, Poppins" opacity="0.5"><tspan x="0" y="0">$15k</tspan></text>
    <text id="_20k" data-name="$20k" transform="translate(7 431)" fill="#d5d5dc" font-size="18" font-family="Poppins-Regular, Poppins" opacity="0.5"><tspan x="0" y="0">$20k</tspan></text>
    <text id="_25k" data-name="$25k" transform="translate(7 343)" fill="#d5d5dc" font-size="18" font-family="Poppins-Regular, Poppins" opacity="0.5"><tspan x="0" y="0">$25k</tspan></text>
    <g id="Rectangle_795" data-name="Rectangle 795" transform="translate(1429 188)" fill="#27293d" stroke="#707070" stroke-width="1">
      <rect width="280" height="55" rx="10" stroke="none"/>
      <rect x="0.5" y="0.5" width="279" height="54" rx="9.5" fill="none"/>
    </g>
  </g>
</svg>
