<svg xmlns="http://www.w3.org/2000/svg" width="787.24" height="401.629" viewBox="0 0 787.24 401.629">
  <g id="Status_2" transform="translate(-328.402 -1180.705)">
    <path id="Icon_payment-mastercard-alt" data-name="Icon payment-mastercard-alt" d="M88.135,41.213a24.859,24.859,0,0,0-3.288-12.534,28.553,28.553,0,0,0-9.041-9.041A26.4,26.4,0,0,0,63.271,16.35a23.714,23.714,0,0,0-15,5.137,24.987,24.987,0,0,1,7.808,12.946h-2.26A23.668,23.668,0,0,0,46.627,22.72a23.642,23.642,0,0,0-7.191,11.712H37.175a24.969,24.969,0,0,1,7.808-12.946,23.729,23.729,0,0,0-15-5.137,26.381,26.381,0,0,0-12.534,3.288,28.511,28.511,0,0,0-9.041,9.041,25.535,25.535,0,0,0,0,25.068,28.483,28.483,0,0,0,9.041,9.041,26.349,26.349,0,0,0,12.534,3.288,23.715,23.715,0,0,0,15-5.137,25.9,25.9,0,0,1-7.6-11.917h2.261a25.006,25.006,0,0,0,6.986,10.685,25.042,25.042,0,0,0,6.986-10.685h2.26a25.959,25.959,0,0,1-7.6,11.917,23.7,23.7,0,0,0,15,5.137,26.358,26.358,0,0,0,12.534-3.288,28.522,28.522,0,0,0,9.041-9.041,24.862,24.862,0,0,0,3.288-12.534ZM16.011,35.253h3.9L17.861,47.171H15.4l1.438-9.041-3.288,9.041H11.7V38.13l-1.644,9.041H7.586L9.641,35.253h3.7v7.4Zm11.506,4.932a9.745,9.745,0,0,1-.206,1.85c-.137.96-.277,1.85-.411,2.671a13.759,13.759,0,0,1-.411,1.85v.617H24.436V46.145a2.976,2.976,0,0,1-2.671,1.233,2.218,2.218,0,0,1-1.644-.617,3.327,3.327,0,0,1-.617-2.055,3.213,3.213,0,0,1,1.027-2.671,5.848,5.848,0,0,1,3.493-1.027h1.027V40.39c0-.546-.549-.821-1.644-.821a11.542,11.542,0,0,0-2.671.411c.133-.546.273-1.233.411-2.055a8.375,8.375,0,0,1,2.877-.617q3.494,0,3.494,2.877Zm-2.876,2.671h-.617c-1.37,0-2.055.482-2.055,1.438,0,.687.273,1.027.821,1.027a1.391,1.391,0,0,0,1.233-.617A2.511,2.511,0,0,0,24.642,42.856ZM34.71,37.514l-.411,2.26a6.325,6.325,0,0,0-1.85-.206c-.822,0-1.233.276-1.233.821a.825.825,0,0,0,.206.617l.821.411a3.041,3.041,0,0,1,1.85,2.671q0,3.289-3.9,3.288a12.139,12.139,0,0,1-2.671-.206c.133-.546.273-1.3.411-2.261a11.134,11.134,0,0,0,2.26.411c.956,0,1.438-.273,1.438-.821a.852.852,0,0,0-.206-.617,2.625,2.625,0,0,0-1.027-.617,2.766,2.766,0,0,1-1.85-2.671q0-3.283,3.7-3.288a9.572,9.572,0,0,1,2.467.207Zm3.9,0h1.233l-.206,2.465H38.2A7.757,7.757,0,0,1,38,41.829a6.422,6.422,0,0,1-.1.821,1.62,1.62,0,0,1-.308.821v.821a.725.725,0,0,0,.821.821,1.816,1.816,0,0,0,.821-.206l-.411,2.261a6.223,6.223,0,0,1-1.85.206,1.816,1.816,0,0,1-2.055-2.055,9.636,9.636,0,0,1,.411-2.671l1.027-6.576h2.465l-.2,1.44ZM47.86,40.8a12.961,12.961,0,0,1-.206,2.465H42.518a1.983,1.983,0,0,0,.411,1.438,2.512,2.512,0,0,0,1.85.617A5.445,5.445,0,0,0,47.45,44.5l-.411,2.465a7.259,7.259,0,0,1-2.671.411q-4.316,0-4.315-4.315a6.139,6.139,0,0,1,1.233-4.109,3.722,3.722,0,0,1,3.082-1.644,3.623,3.623,0,0,1,2.671,1.027A3.37,3.37,0,0,1,47.86,40.8Zm-5.138.411H45.6V40.6l-.206-.411a.61.61,0,0,0-.206-.411.58.58,0,0,1-.411-.206h-.411q-1.232,0-1.644,1.644Zm11.508-3.7A15.309,15.309,0,0,0,53.2,40.391c-.549-.134-1.027.206-1.438,1.027a40.453,40.453,0,0,0-1.027,5.753H48.066l.206-.617q.817-5.749,1.233-9.041h2.465l-.206,1.438A2.626,2.626,0,0,1,53,37.719a.894.894,0,0,1,1.232-.2Zm8.629-1.85-.411,2.465a5.12,5.12,0,0,0-2.26-.617,2.756,2.756,0,0,0-2.465,1.233,5.266,5.266,0,0,0-.821,3.288,2.834,2.834,0,0,0,.617,2.055,1.945,1.945,0,0,0,1.644.821,5.123,5.123,0,0,0,2.26-.617l-.411,2.671a5.1,5.1,0,0,1-2.26.411,4.111,4.111,0,0,1-3.288-1.438,5.024,5.024,0,0,1-1.233-3.7A7.945,7.945,0,0,1,55.875,37.1a4.716,4.716,0,0,1,4.109-2.055,9.9,9.9,0,0,1,2.876.617Zm7.4,4.521a6.452,6.452,0,0,1-.1.821,6.11,6.11,0,0,0-.1,1.027c-.137.687-.277,1.612-.411,2.774a14.517,14.517,0,0,1-.411,2.363H67.176V46.143A2.976,2.976,0,0,1,64.5,47.376a2.218,2.218,0,0,1-1.644-.617,3.327,3.327,0,0,1-.617-2.055,3.213,3.213,0,0,1,1.027-2.671,5.512,5.512,0,0,1,3.288-1.027h1.027a.845.845,0,0,0,.206-.617c0-.546-.549-.821-1.644-.821a11.541,11.541,0,0,0-2.671.411,6.66,6.66,0,0,1,.411-2.055,8.374,8.374,0,0,1,2.877-.617q3.491,0,3.492,2.877Zm-2.876,2.671h-.617c-1.37,0-2.055.482-2.055,1.438,0,.687.274,1.027.821,1.027a1.391,1.391,0,0,0,1.233-.617A2.511,2.511,0,0,0,67.381,42.856Zm9.246-5.343A5.473,5.473,0,0,0,75.6,40.391c-.549-.134-1.027.206-1.438,1.027a41.407,41.407,0,0,0-1.027,5.753H70.463l.206-.617q.814-4.492,1.233-9.041h2.465a4.623,4.623,0,0,1-.206,1.438,2.626,2.626,0,0,1,1.233-1.233,1.47,1.47,0,0,1,1.232-.2ZM83,35.253h2.671L83.614,47.172H81.148l.206-.821a2.736,2.736,0,0,1-2.26,1.027,2.407,2.407,0,0,1-2.26-1.027,4.9,4.9,0,0,1-1.027-2.877,6.32,6.32,0,0,1,1.438-4.315,3.221,3.221,0,0,1,2.877-1.644,3.55,3.55,0,0,1,2.465,1.233L83,35.253Zm-1.027,6.37c0-1.233-.483-1.85-1.438-1.85A1.733,1.733,0,0,0,79.093,40.8a4.344,4.344,0,0,0-.411,2.26q0,1.85,1.233,1.85a1.78,1.78,0,0,0,1.438-.821,4.081,4.081,0,0,0,.616-2.466Z" transform="translate(1027.508 1164.355)" fill="#f5fbff"/>
    <text id="_8_19" data-name="8/19" transform="translate(328.402 1578.334)" fill="#fff" font-size="15" font-family="Montserrat-Regular, Montserrat" opacity="0.5"><tspan x="0" y="0">8/19</tspan></text>
    <text id="_9_19" data-name="9/19" transform="translate(408.393 1578.334)" fill="#fff" font-size="15" font-family="Montserrat-Regular, Montserrat" opacity="0.5"><tspan x="0" y="0">9/19</tspan></text>
    <text id="_10_19" data-name="10/19" transform="translate(476.805 1578.334)" fill="#fff" font-size="15" font-family="Montserrat-Regular, Montserrat" opacity="0.5"><tspan x="0" y="0">10/19</tspan></text>
    <text id="_11_19" data-name="11/19" transform="translate(555.742 1578.334)" fill="#fff" font-size="15" font-family="Montserrat-Regular, Montserrat" opacity="0.5"><tspan x="0" y="0">11/19</tspan></text>
    <text id="_12_19" data-name="12/19" transform="translate(632.576 1578.334)" fill="#fff" font-size="15" font-family="Montserrat-Regular, Montserrat" opacity="0.5"><tspan x="0" y="0">12/19</tspan></text>
    <text id="_1_20" data-name="1/20" transform="translate(716.775 1578.334)" fill="#fff" font-size="15" font-family="Montserrat-Regular, Montserrat" opacity="0.5"><tspan x="0" y="0">1/20</tspan></text>
    <text id="_2_20" data-name="2/20" transform="translate(790.451 1578.334)" fill="#fff" font-size="15" font-family="Montserrat-Regular, Montserrat" opacity="0.5"><tspan x="0" y="0">2/20</tspan></text>
    <text id="_3_20" data-name="3/20" transform="translate(867.283 1578.334)" fill="#fff" font-size="15" font-family="Montserrat-Regular, Montserrat" opacity="0.5"><tspan x="0" y="0">3/20</tspan></text>
    <text id="_4_20" data-name="4/20" transform="translate(938.854 1578.334)" fill="#fff" font-size="15" font-family="Montserrat-Regular, Montserrat" opacity="0.5"><tspan x="0" y="0">4/20</tspan></text>
    <text id="_5_20" data-name="5/20" transform="translate(1018.844 1578.334)" fill="#fff" font-size="15" font-family="Montserrat-Regular, Montserrat" opacity="0.5"><tspan x="0" y="0">5/20</tspan></text>
    <line id="Line_30" data-name="Line 30" y2="255.006" transform="translate(345.047 1291.473)" fill="none" stroke="#fff" stroke-linecap="round" stroke-width="1" opacity="0.3"/>
    <line id="Line_30-2" data-name="Line 30" y2="255.006" transform="translate(421.549 1291.473)" fill="none" stroke="#fff" stroke-linecap="round" stroke-width="1" opacity="0.3"/>
    <line id="Line_30-3" data-name="Line 30" y2="255.006" transform="translate(498.051 1291.473)" fill="none" stroke="#fff" stroke-linecap="round" stroke-width="1" opacity="0.3"/>
    <line id="Line_30-4" data-name="Line 30" y2="255.006" transform="translate(574.553 1291.473)" fill="none" stroke="#fff" stroke-linecap="round" stroke-width="1" opacity="0.3"/>
    <line id="Line_30-5" data-name="Line 30" y2="255.006" transform="translate(651.055 1291.473)" fill="none" stroke="#fff" stroke-linecap="round" stroke-width="1" opacity="0.3"/>
    <line id="Line_30-6" data-name="Line 30" y2="255.006" transform="translate(727.557 1291.473)" fill="none" stroke="#fff" stroke-linecap="round" stroke-width="1" opacity="0.3"/>
    <line id="Line_30-7" data-name="Line 30" y2="255.006" transform="translate(804.059 1291.473)" fill="none" stroke="#fff" stroke-linecap="round" stroke-width="1" opacity="0.3"/>
    <line id="Line_30-8" data-name="Line 30" y2="255.006" transform="translate(880.561 1291.473)" fill="none" stroke="#fff" stroke-linecap="round" stroke-width="1" opacity="0.3"/>
    <line id="Line_30-9" data-name="Line 30" y2="255.006" transform="translate(957.063 1291.473)" fill="none" stroke="#fff" stroke-linecap="round" stroke-width="1" opacity="0.3"/>
    <line id="Line_30-10" data-name="Line 30" y2="255.006" transform="translate(1033.563 1291.473)" fill="none" stroke="#fff" stroke-linecap="round" stroke-width="1" opacity="0.3"/>
    <path id="Path_10761" data-name="Path 10761" d="M2616.5,3240.558l77.134-51.349,75.966,26.645,75.966,12.472,77.666-57.824,75.4,81.635,77.1-28.912,75.734,28.912,77.6-136.471,75.688,14.372" transform="translate(-2271.453 -1784.085)" fill="none" stroke="#37a28c" stroke-linecap="round" stroke-width="5"/>
  </g>
</svg>
