<svg xmlns="http://www.w3.org/2000/svg" width="386.268" height="421.001" viewBox="0 0 386.268 421.001">
  <g id="Status_3" transform="translate(-1229.457 -1276.724)">
    <text id="_01_20" data-name="01/20" transform="translate(1233 1662)" fill="#fff" font-size="25" font-family="Poppins-Regular, Poppins"><tspan x="0" y="0">01/20</tspan></text>
    <text id="_03_20" data-name="03/20" transform="translate(1534 1662)" fill="#fff" font-size="25" font-family="Poppins-Regular, Poppins"><tspan x="0" y="0">03/20</tspan></text>
    <rect id="Rectangle_72" data-name="Rectangle 72" width="117.88" height="421.001" rx="12" transform="translate(1367 1276.724)" fill="#37a28c"/>
    <text id="_02_20" data-name="02/20" transform="translate(1390 1662)" fill="#fff" font-size="25" font-family="Poppins-SemiBold, Poppins" font-weight="600"><tspan x="0" y="0">02/20</tspan></text>
    <text id="_24_" data-name="+24%" transform="translate(1385.227 1341.614)" fill="#fff" font-size="25" font-family="Poppins-SemiBold, Poppins" font-weight="600"><tspan x="0" y="0">+24%</tspan></text>
    <g id="Ellipse_62" data-name="Ellipse 62" transform="translate(1411.539 1435.651)" fill="#00ccf2" stroke="#fff" stroke-width="5">
      <circle cx="13.156" cy="13.156" r="13.156" stroke="none"/>
      <circle cx="13.156" cy="13.156" r="10.656" fill="none"/>
    </g>
    <line id="Line_25" data-name="Line 25" x1="178.504" y2="114.753" transform="translate(1424.996 1335.228)" fill="rgba(0,0,0,0)" stroke="#fff" stroke-width="2"/>
    <line id="Line_22" data-name="Line 22" x1="170.535" y2="111.565" transform="translate(1432.965 1335.228)" fill="none" stroke="#fff" stroke-width="2"/>
    <line id="Line_24" data-name="Line 24" x1="181.692" y1="44.626" transform="translate(1243.305 1405.354)" fill="rgba(0,0,0,0)" stroke="#fff" stroke-width="2"/>
    <line id="Line_23" data-name="Line 23" x1="173.723" y1="43.032" transform="translate(1243.305 1405.354)" fill="none" stroke="#fff" stroke-width="2"/>
    <g id="Ellipse_53" data-name="Ellipse 53" transform="translate(1229.457 1391.446)" fill="#00ccf2" stroke="#fff" stroke-width="5">
      <circle cx="13.156" cy="13.156" r="13.156" stroke="none"/>
      <circle cx="13.156" cy="13.156" r="10.656" fill="none"/>
    </g>
    <g id="Ellipse_63" data-name="Ellipse 63" transform="translate(1590.465 1321.981)" fill="#00ccf2" stroke="#fff" stroke-width="5">
      <circle cx="12.63" cy="12.63" r="12.63" stroke="none"/>
      <circle cx="12.63" cy="12.63" r="10.13" fill="none"/>
    </g>
  </g>
</svg>
