<svg xmlns="http://www.w3.org/2000/svg" width="36.116" height="25" viewBox="0 0 36.116 25">
  <g id="tag" transform="translate(0 -75.075)">
    <path id="Path_82" data-name="Path 82" d="M35.461,85.454l-6.182-8.432a5.2,5.2,0,0,0-3.835-1.947H2.9a2.907,2.907,0,0,0-2.9,2.9v19.2a2.907,2.907,0,0,0,2.9,2.9H25.444a5.174,5.174,0,0,0,3.835-1.947L35.461,89.7A3.761,3.761,0,0,0,35.461,85.454Zm-1.614,3.072-6.182,8.432a3.246,3.246,0,0,1-2.228,1.125H2.9a.907.907,0,0,1-.9-.9v-19.2a.907.907,0,0,1,.9-.9H25.444A3.292,3.292,0,0,1,27.673,78.2l6.182,8.432A1.8,1.8,0,0,1,33.847,88.526Z" transform="translate(0 0)" fill="#00ccf2"/>
  </g>
</svg>
