<svg xmlns="http://www.w3.org/2000/svg" width="102" height="102" viewBox="0 0 102 102">
  <g id="Trafic_Graphs_2" data-name="Trafic Graphs_2" transform="translate(-313 -982)">
    <rect id="Rectangle_223" data-name="Rectangle 223" width="102" height="102" rx="10" transform="translate(313 982)" fill="#ffd950" opacity="0.17"/>
    <g id="Group_60" data-name="Group 60" transform="translate(340.26 1001.551)">
      <g id="Group_57" data-name="Group 57">
        <path id="Path_342" data-name="Path 342" d="M229.262,285.527q-2.59,2.662-5.254,5.252a2.755,2.755,0,0,1-4.192-.036c-.828-.786-1.629-1.6-2.415-2.42a2.823,2.823,0,0,1-.226-4.091c1.086-1.1,2.751-1.036,4.114.164.185.161.361.33.73.67,1.161-1.2,2.236-2.361,3.367-3.472a2.7,2.7,0,0,1,4.073-.167,2.814,2.814,0,0,1-.2,4.1Z" transform="translate(-207.726 -261.192)" fill="#ffd950"/>
        <path id="Path_343" data-name="Path 343" d="M229.262,317.527q-2.59,2.662-5.254,5.252a2.755,2.755,0,0,1-4.192-.036c-.828-.786-1.629-1.6-2.415-2.42a2.823,2.823,0,0,1-.226-4.091c1.086-1.1,2.751-1.036,4.114.164.185.161.361.33.73.67,1.161-1.2,2.236-2.361,3.367-3.472a2.7,2.7,0,0,1,4.073-.167,2.814,2.814,0,0,1-.2,4.1Z" transform="translate(-207.726 -277.816)" fill="#ffd950"/>
        <path id="Path_344" data-name="Path 344" d="M247.313,251.767a16.524,16.524,0,0,0-.049-1.716,5.244,5.244,0,0,0-3.412-4.487,5.39,5.39,0,0,0-1.76-.325h-.785c-1.706-.02-3.417,0-5.128,0-.32,0-.641-.044-1.025-.079a4.365,4.365,0,0,0-2.9-4.915H213.235l-.074.03a4.366,4.366,0,0,0-2.82,4.881c-.424.03-.774.084-1.124.084-1.666.01-3.338-.015-5,0h-.932a5.376,5.376,0,0,0-2.85.863l-.133.089a4.481,4.481,0,0,0-1.666,1.952c-.025.049-.049.1-.074.153s-.044.113-.069.173a5.526,5.526,0,0,0-.4,1.583l-.015.192c-.044.5-.039,1.011-.039,1.523q-.007,16.085,0,32.18v8.978a11.311,11.311,0,0,0,.335,3.165c.508,1.676,1.657,2.569,4.038,3.57h40.562c2.268-.956,3.417-1.819,3.949-3.362a10.432,10.432,0,0,0,.4-3.372v-10.24Q247.318,267.221,247.313,251.767Zm-31.869-6.518h14.53v4.812h-14.53Zm27.008,48.2c-.01.991-.325,1.272-1.336,1.262-5.246-.03-10.492-.025-15.738-.025h-5.3q-7.912,0-15.821.025c-1.04.01-1.346-.286-1.341-1.341v-.015q.022-8.564.025-17.133.007-12.417-.02-24.834a3.1,3.1,0,0,1,.034-.5v-.01a.821.821,0,0,1,.759-.794h1.627a.118.118,0,0,1,.059,0c1.257.01,2.524,0,3.821,0h1.09c.015.118.025.237.03.345a10.269,10.269,0,0,0,.015,1.119,3.749,3.749,0,0,0,1.859,3,2.67,2.67,0,0,0,.237.123,2.457,2.457,0,0,0,.237.1c.108.044.217.079.33.113a2.78,2.78,0,0,0,.35.079c.118.025.242.039.365.054a3.094,3.094,0,0,0,.375.015q8.608.03,17.226,0h.039a3.709,3.709,0,0,0,3.767-3.491c.039-.429,0-.868,0-1.464h1.011c1.3.005,2.564.015,3.826.005a.138.138,0,0,1,.064,0h1.6c.646.1.8.523.8,1.306q-.015,9.629-.02,19.253v15.309q.007,3.713.015,7.42Z" transform="translate(-198.03 -240.23)" fill="#ffd950"/>
        <path id="Path_345" data-name="Path 345" d="M267.573,303.244a2.676,2.676,0,0,1-2.918,2.834c-1.417.011-2.829.017-4.246.017-3.1.011-6.2,0-9.3-.017a2.728,2.728,0,0,1-2.973-2.8,2.593,2.593,0,0,1,2.1-2.556,4.037,4.037,0,0,1,.845-.1c2.284-.028,4.568-.011,6.847-.011,2.234,0,4.463-.017,6.7.006C266.478,300.649,267.534,301.61,267.573,303.244Z" transform="translate(-226.56 -271.179)" fill="#ffd950"/>
        <path id="Path_346" data-name="Path 346" d="M264.8,323.814a2.8,2.8,0,0,1-2.873,2.723q-.175.017-.35.017c-1.734.017-3.473,0-5.2,0s-3.473.022-5.207-.006c-1.9-.033-3.018-1.067-3.034-2.729-.011-1.706,1.167-2.812,3.107-2.823q4.61-.033,9.225-.006c.395,0,.789.006,1.184.006C263.555,321.007,264.828,322.174,264.8,323.814Z" transform="translate(-224.78 -281.628)" fill="#ffd950"/>
        <path id="Path_347" data-name="Path 347" d="M259.2,283.1a2.632,2.632,0,0,1-2.617,2.829c-.372.028-.739.039-1.111.039-.245,0-.489-.005-.734-.011-.056,0-.111-.006-.161-.006-.2,0-.378-.006-.572-.006-.061-.006-.128-.006-.2-.006h-.2c-.144,0-.289.006-.433.006-.217,0-.433.006-.65.011-.4.011-.795.011-1.2,0-.178-.006-.361-.017-.545-.028a2.729,2.729,0,0,1-2.651-2.829,2.691,2.691,0,0,1,2.645-2.684c1.928-.089,3.868-.083,5.8,0A2.654,2.654,0,0,1,259.2,283.1Z" transform="translate(-224.215 -260.802)" fill="#ffd950"/>
      </g>
    </g>
  </g>
</svg>
