<svg xmlns="http://www.w3.org/2000/svg" xmlns:xlink="http://www.w3.org/1999/xlink" width="401.374" height="86.531" viewBox="0 0 401.374 86.531">
  <defs>
    <linearGradient id="linear-gradient" x1="0.5" y1="-1.279" x2="0.5" y2="0.736" gradientUnits="objectBoundingBox">
      <stop offset="0" stop-color="#2cd889"/>
      <stop offset="1" stop-color="#2cd889" stop-opacity="0"/>
    </linearGradient>
  </defs>
  <g id="Trafic_Graphs_6" data-name="Trafic Graphs_6" transform="translate(-748.944 -989.465)">
    <path id="Line" d="M1015.35,368.754s18.358,5.491,26.516,2.059c0,0,18.7-.686,28.556-26.768,0,0,8.849-25.389,24.477-8.237,0,0,16.58,38.39,32.439-19.906,0,0,20.285-41.713,38.952-4.9,0,0,24.477,73.977,46.914,49.267,0,0,20.25-26.769,53.033,12.355,0,0,20.545,20.879,34.676-6.178,0,0,3.86-22.85,18.357-35.006,0,0,18.187-11.882,28.556,32.947,0,0,9.54,20.086,18.469-35.546,0,0,10.449-30.208,30.6,10.27a79.646,79.646,0,0,0,18.842,28.391" transform="translate(-266.119 694.653)" stroke="#2cd889" stroke-width="2" stroke-dasharray="4" fill="url(#linear-gradient)"/>
  </g>
</svg>
