<svg xmlns="http://www.w3.org/2000/svg" width="568" height="106" viewBox="0 0 568 106">
  <g id="Trafic_Graphs_3" data-name="Trafic Graphs_3" transform="translate(-1016 -982)">
    <g id="Group_3074" data-name="Group 3074" transform="translate(-2998 128)">
      <text id="JUN" transform="translate(4524 916)" fill="#fff" font-size="25" font-family="Montserrat-Medium, Montserrat" font-weight="500" letter-spacing="0.02em"><tspan x="0" y="0">JUN</tspan></text>
      <text id="_20_" data-name="+ 20% " transform="translate(4501 954)" fill="#ff2366" font-size="25" font-family="Montserrat-Light, Montserrat" font-weight="300" letter-spacing="0.02em"><tspan x="0" y="0">+ 20% </tspan></text>
    </g>
    <rect id="Rectangle_225" data-name="Rectangle 225" width="102" height="102" rx="10" transform="translate(1016 982)" fill="#ff2366" opacity="0.17"/>
    <text id="DDoS" transform="translate(1143 1006)" fill="#fff" font-size="25" font-family="Montserrat-Regular, Montserrat" letter-spacing="0.02em"><tspan x="0" y="0">DDoS</tspan></text>
    <text id="_1095" data-name="1095" transform="translate(1143 1072)" fill="#fff" font-size="51" font-family="Montserrat-Medium, Montserrat" font-weight="500" letter-spacing="0.02em"><tspan x="0" y="0">1095</tspan></text>
    <g id="Group_59" data-name="Group 59" transform="translate(1041.938 1003.674)">
      <path id="Path_355" data-name="Path 355" d="M407.426,274.754a3.384,3.384,0,0,1-.975-2.559c.04-6.907.021-13.814.018-20.721,0-4.171-2.071-6.239-6.233-6.244-2.013,0-4.026,0-6.157,0,.224-2.451-.695-4.126-2.9-5H372.164a4.313,4.313,0,0,0-2.805,4.9c-.465.037-.837.093-1.209.1-1.979.008-3.96-.024-5.938.016a5.241,5.241,0,0,0-5.193,4.81,16.971,16.971,0,0,0-.053,1.714q0,20.578,0,41.162c0,3.98.819,5.238,4.371,6.733h36.979c2.068-.784,4.329-1.263,6.172-2.406A14.654,14.654,0,0,0,407.426,274.754Zm-33.048-29.5h14.649v4.813H374.377Zm10.906,49.324a8.631,8.631,0,0,1-.972.116c-7.042.008-14.083-.013-21.123.027-1.041.008-1.344-.288-1.342-1.342q.052-20.99.005-41.981c0-.935.222-1.363,1.244-1.334,2.018.058,4.036.016,6.149.016.076.771.1,1.342.2,1.9a3.526,3.526,0,0,0,3.571,3.061q8.646.032,17.293,0a3.7,3.7,0,0,0,3.766-3.489c.042-.43.008-.869.008-1.463,2.282,0,4.472,0,6.659,0,.9,0,.753.669.753,1.226q.008,6.533,0,13.069v6.295c-7.771-1.846-14.094.119-18.009,7.242C380.326,283.666,381.348,289.278,385.284,294.574Zm11.371.122a9.8,9.8,0,0,1-9.99-9.892,9.918,9.918,0,0,1,9.855-9.939,10.044,10.044,0,0,1,9.971,9.879A9.9,9.9,0,0,1,396.654,294.7Z" transform="translate(-356.963 -240.232)" fill="#ff2366"/>
      <path id="Path_356" data-name="Path 356" d="M384.457,290.412l.386,0h.177c-.061,0-.119,0-.177,0C384.713,290.407,384.587,290.409,384.457,290.412Zm-1.635.01c.352.011.7.008,1.057,0C383.525,290.428,383.174,290.434,382.822,290.423Z" transform="translate(-370.072 -265.669)" fill="#ff2366"/>
      <path id="Path_357" data-name="Path 357" d="M394.308,302.949a2.371,2.371,0,0,1-2.586,2.515q-6.006.035-12.016,0a2.428,2.428,0,1,1-.024-4.839c2.026-.026,4.049-.008,6.075-.008,1.981,0,3.959-.016,5.94.005C393.341,300.643,394.276,301.5,394.308,302.949Z" transform="translate(-367.155 -270.841)" fill="#ff2366"/>
      <path id="Path_358" data-name="Path 358" d="M421.956,282.845c.016,1.543-.975,2.459-2.758,2.493-1.537.029-3.077.005-4.614.005s-3.077.021-4.617-.005c-1.693-.032-2.832-1.062-2.807-2.491s1.157-2.43,2.869-2.441q4.552-.027,9.1,0C420.887,280.418,421.938,281.353,421.956,282.845Z" transform="translate(-382.41 -260.592)" fill="#ff2366"/>
      <path id="Path_359" data-name="Path 359" d="M386.888,323.082c-.019,1.44-1.146,2.411-2.861,2.43-1.54.016-3.08,0-4.617,0s-3.08.021-4.617-.005c-1.685-.032-2.678-.948-2.692-2.422a2.454,2.454,0,0,1,2.755-2.5q4.616-.032,9.234,0A2.529,2.529,0,0,1,386.888,323.082Z" transform="translate(-364.638 -280.959)" fill="#ff2366"/>
      <path id="Path_360" data-name="Path 360" d="M386.886,282.795a2.332,2.332,0,0,1-2.322,2.507c-.328.026-.655.034-.985.034q-.325,0-.65-.008l-.145,0c-.169,0-.335-.008-.5-.008-.058,0-.116,0-.174,0h-.177l-.386,0c-.193,0-.386.008-.578.01-.354.008-.705.011-1.057,0-.161,0-.322-.013-.483-.026a2.414,2.414,0,0,1-2.351-2.507,2.382,2.382,0,0,1,2.345-2.38c1.709-.079,3.429-.076,5.14,0A2.348,2.348,0,0,1,386.886,282.795Z" transform="translate(-367.158 -260.573)" fill="#ff2366"/>
      <path id="Path_361" data-name="Path 361" d="M430.111,330.354c1.744,0,3.489,0,5.234,0A1.38,1.38,0,0,0,436.874,329a1.36,1.36,0,0,0-1.483-1.39q-5.322-.012-10.644,0a1.792,1.792,0,0,0-.734.156,1.367,1.367,0,0,0,.63,2.576C426.464,330.362,428.288,330.353,430.111,330.354Z" transform="translate(-390.582 -284.528)" fill="#ff2366"/>
    </g>
  </g>
</svg>
